<svg width="503" height="337" viewBox="0 0 503 337" fill="none" xmlns="http://www.w3.org/2000/svg">
<g filter="url(#filter0_d_422_164)">
<rect x="61.5518" y="35.3574" width="380.295" height="213.559" rx="17.93" fill="white" shape-rendering="crispEdges"/>
<rect x="114.538" y="88.3438" width="107.587" height="107.587" rx="53.79" fill="#1466D9" fill-opacity="0.1"/>
<g clip-path="url(#clip0_422_164)">
<path d="M155.423 153.756H156.695V136.95H155.423C154.697 136.95 154.081 137.203 153.576 137.707C153.072 138.212 152.819 138.828 152.819 139.554V151.182C152.819 151.889 153.072 152.494 153.576 152.999C154.081 153.504 154.697 153.756 155.423 153.756ZM176.074 136.95H167.051L168.504 132.62C168.767 131.772 168.641 130.99 168.126 130.274C167.611 129.557 166.92 129.199 166.052 129.199H165.749L159.299 136.224V153.756H173.501L178.557 142.643C178.578 142.582 178.598 142.502 178.618 142.401C178.638 142.3 178.658 142.209 178.679 142.128V139.554C178.679 138.828 178.426 138.212 177.922 137.707C177.417 137.203 176.801 136.95 176.074 136.95Z" fill="#1565D8"/>
</g>
<path d="M266.131 122.011C264.348 122.011 262.76 121.705 261.367 121.092C259.982 120.471 258.888 119.619 258.084 118.537C257.288 117.446 256.878 116.189 256.854 114.764H262.06C262.092 115.361 262.287 115.886 262.645 116.34C263.011 116.786 263.496 117.132 264.101 117.379C264.706 117.626 265.387 117.749 266.143 117.749C266.931 117.749 267.627 117.61 268.232 117.331C268.837 117.052 269.31 116.666 269.653 116.173C269.995 115.68 270.166 115.11 270.166 114.466C270.166 113.813 269.983 113.236 269.617 112.735C269.259 112.225 268.741 111.827 268.065 111.541C267.396 111.254 266.6 111.111 265.677 111.111H263.397V107.314H265.677C266.457 107.314 267.146 107.179 267.743 106.909C268.347 106.638 268.817 106.264 269.151 105.786C269.486 105.301 269.653 104.736 269.653 104.091C269.653 103.478 269.505 102.941 269.211 102.479C268.924 102.01 268.519 101.644 267.993 101.381C267.476 101.118 266.871 100.987 266.179 100.987C265.478 100.987 264.837 101.114 264.256 101.369C263.675 101.616 263.21 101.97 262.86 102.432C262.509 102.893 262.322 103.434 262.298 104.055H257.344C257.368 102.646 257.77 101.405 258.55 100.33C259.33 99.2558 260.38 98.4161 261.702 97.8112C263.031 97.1984 264.531 96.8919 266.202 96.8919C267.89 96.8919 269.366 97.1984 270.632 97.8112C271.897 98.4241 272.88 99.2518 273.581 100.294C274.289 101.329 274.639 102.491 274.631 103.781C274.639 105.15 274.213 106.292 273.354 107.207C272.502 108.122 271.392 108.703 270.023 108.95V109.141C271.822 109.372 273.191 109.997 274.13 111.015C275.077 112.026 275.546 113.292 275.539 114.812C275.546 116.205 275.145 117.442 274.333 118.525C273.529 119.607 272.419 120.459 271.002 121.08C269.585 121.701 267.961 122.011 266.131 122.011ZM288.415 96.8919C289.672 96.8919 290.882 97.1028 292.044 97.5247C293.214 97.9465 294.257 98.6191 295.172 99.5423C296.095 100.466 296.823 101.691 297.357 103.219C297.898 104.74 298.172 106.606 298.18 108.819C298.18 110.896 297.946 112.751 297.476 114.382C297.014 116.006 296.35 117.387 295.482 118.525C294.615 119.663 293.568 120.531 292.342 121.128C291.117 121.717 289.748 122.011 288.235 122.011C286.604 122.011 285.163 121.697 283.914 121.068C282.664 120.431 281.657 119.568 280.893 118.477C280.137 117.379 279.679 116.145 279.52 114.776H284.618C284.817 115.668 285.235 116.36 285.872 116.854C286.508 117.339 287.296 117.582 288.235 117.582C289.827 117.582 291.037 116.889 291.865 115.504C292.693 114.112 293.11 112.205 293.118 109.786H292.951C292.585 110.502 292.092 111.119 291.471 111.636C290.85 112.146 290.138 112.54 289.334 112.818C288.538 113.097 287.69 113.236 286.791 113.236C285.35 113.236 284.065 112.898 282.935 112.221C281.804 111.545 280.913 110.614 280.26 109.428C279.608 108.242 279.281 106.889 279.281 105.368C279.273 103.729 279.652 102.268 280.416 100.987C281.18 99.7055 282.246 98.7026 283.615 97.9784C284.992 97.2461 286.592 96.884 288.415 96.8919ZM288.45 100.951C287.646 100.951 286.93 101.142 286.301 101.524C285.681 101.906 285.187 102.42 284.821 103.064C284.463 103.709 284.288 104.429 284.296 105.225C284.296 106.029 284.471 106.753 284.821 107.398C285.179 108.035 285.665 108.544 286.278 108.926C286.898 109.3 287.607 109.487 288.403 109.487C289 109.487 289.553 109.376 290.062 109.153C290.571 108.93 291.013 108.624 291.387 108.234C291.769 107.836 292.068 107.378 292.283 106.861C292.498 106.343 292.605 105.794 292.605 105.213C292.597 104.441 292.414 103.733 292.056 103.088C291.698 102.443 291.204 101.926 290.575 101.536C289.947 101.146 289.238 100.951 288.45 100.951ZM311.197 122.011C309.358 122.011 307.723 121.713 306.29 121.116C304.865 120.511 303.747 119.687 302.935 118.644C302.123 117.602 301.717 116.42 301.717 115.099C301.717 114.08 301.948 113.145 302.41 112.293C302.879 111.433 303.516 110.721 304.32 110.156C305.124 109.583 306.023 109.217 307.018 109.058V108.89C305.713 108.628 304.654 107.995 303.843 106.992C303.031 105.981 302.625 104.807 302.625 103.47C302.625 102.205 302.995 101.078 303.735 100.092C304.475 99.0966 305.49 98.3166 306.779 97.7515C308.077 97.1785 309.549 96.8919 311.197 96.8919C312.844 96.8919 314.313 97.1785 315.602 97.7515C316.9 98.3246 317.918 99.1086 318.658 100.103C319.399 101.09 319.773 102.213 319.781 103.47C319.773 104.815 319.359 105.989 318.539 106.992C317.719 107.995 316.669 108.628 315.387 108.89V109.058C316.366 109.217 317.254 109.583 318.05 110.156C318.853 110.721 319.49 111.433 319.96 112.293C320.437 113.145 320.68 114.08 320.688 115.099C320.68 116.42 320.27 117.602 319.458 118.644C318.647 119.687 317.524 120.511 316.092 121.116C314.667 121.713 313.035 122.011 311.197 122.011ZM311.197 118.215C312.017 118.215 312.733 118.067 313.346 117.773C313.959 117.47 314.436 117.056 314.778 116.531C315.129 115.998 315.304 115.385 315.304 114.693C315.304 113.984 315.125 113.359 314.766 112.818C314.408 112.269 313.923 111.839 313.31 111.529C312.697 111.21 311.993 111.051 311.197 111.051C310.409 111.051 309.704 111.21 309.084 111.529C308.463 111.839 307.973 112.269 307.615 112.818C307.265 113.359 307.09 113.984 307.09 114.693C307.09 115.385 307.261 115.998 307.603 116.531C307.945 117.056 308.427 117.47 309.048 117.773C309.669 118.067 310.385 118.215 311.197 118.215ZM311.197 107.291C311.881 107.291 312.49 107.151 313.023 106.873C313.557 106.594 313.975 106.208 314.277 105.715C314.579 105.221 314.731 104.652 314.731 104.007C314.731 103.371 314.579 102.814 314.277 102.336C313.975 101.85 313.561 101.472 313.035 101.202C312.51 100.923 311.897 100.784 311.197 100.784C310.504 100.784 309.891 100.923 309.358 101.202C308.825 101.472 308.407 101.85 308.105 102.336C307.81 102.814 307.663 103.371 307.663 104.007C307.663 104.652 307.814 105.221 308.117 105.715C308.419 106.208 308.837 106.594 309.37 106.873C309.903 107.151 310.512 107.291 311.197 107.291ZM324.759 121.677V97.2262H329.929V108.007H330.251L339.05 97.2262H345.246L336.173 108.174L345.354 121.677H339.169L332.472 111.624L329.929 114.728V121.677H324.759Z" fill="#333333"/>
<path d="M256.266 161.108V158.632H271.021V161.108H265.072V177.697H262.205V161.108H256.266ZM278.007 177.986C276.667 177.986 275.497 177.679 274.498 177.064C273.498 176.45 272.723 175.59 272.17 174.486C271.618 173.381 271.342 172.09 271.342 170.613C271.342 169.13 271.618 167.833 272.17 166.722C272.723 165.611 273.498 164.748 274.498 164.134C275.497 163.519 276.667 163.212 278.007 163.212C279.348 163.212 280.518 163.519 281.517 164.134C282.516 164.748 283.292 165.611 283.844 166.722C284.396 167.833 284.673 169.13 284.673 170.613C284.673 172.09 284.396 173.381 283.844 174.486C283.292 175.59 282.516 176.45 281.517 177.064C280.518 177.679 279.348 177.986 278.007 177.986ZM278.017 175.649C278.885 175.649 279.605 175.42 280.176 174.96C280.747 174.501 281.169 173.89 281.442 173.126C281.722 172.363 281.861 171.522 281.861 170.604C281.861 169.691 281.722 168.854 281.442 168.09C281.169 167.321 280.747 166.703 280.176 166.238C279.605 165.772 278.885 165.539 278.017 165.539C277.141 165.539 276.415 165.772 275.838 166.238C275.267 166.703 274.842 167.321 274.563 168.09C274.29 168.854 274.153 169.691 274.153 170.604C274.153 171.522 274.29 172.363 274.563 173.126C274.842 173.89 275.267 174.501 275.838 174.96C276.415 175.42 277.141 175.649 278.017 175.649ZM294.454 163.398V165.633H286.644V163.398H294.454ZM288.738 159.973H291.522V173.499C291.522 174.039 291.602 174.445 291.764 174.718C291.925 174.985 292.133 175.168 292.388 175.268C292.648 175.361 292.931 175.407 293.235 175.407C293.458 175.407 293.654 175.392 293.821 175.361C293.989 175.33 294.119 175.305 294.212 175.286L294.715 177.586C294.553 177.648 294.324 177.71 294.026 177.772C293.728 177.84 293.356 177.877 292.909 177.883C292.177 177.896 291.494 177.766 290.861 177.492C290.228 177.219 289.716 176.797 289.325 176.226C288.934 175.655 288.738 174.939 288.738 174.076V159.973ZM301.694 178.014C300.788 178.014 299.969 177.846 299.237 177.511C298.504 177.17 297.924 176.676 297.496 176.031C297.074 175.385 296.863 174.594 296.863 173.657C296.863 172.85 297.018 172.186 297.328 171.665C297.639 171.144 298.058 170.731 298.585 170.427C299.113 170.123 299.702 169.893 300.354 169.738C301.005 169.583 301.67 169.465 302.346 169.384C303.202 169.285 303.898 169.204 304.431 169.142C304.965 169.074 305.353 168.965 305.595 168.816C305.837 168.667 305.958 168.425 305.958 168.09V168.025C305.958 167.212 305.728 166.582 305.269 166.135C304.816 165.688 304.14 165.465 303.24 165.465C302.303 165.465 301.564 165.673 301.024 166.089C300.49 166.498 300.121 166.954 299.916 167.457L297.3 166.861C297.611 165.993 298.064 165.291 298.66 164.758C299.262 164.218 299.954 163.827 300.736 163.585C301.517 163.336 302.34 163.212 303.202 163.212C303.773 163.212 304.379 163.28 305.018 163.417C305.663 163.547 306.265 163.789 306.824 164.143C307.388 164.497 307.851 165.003 308.211 165.661C308.571 166.312 308.751 167.159 308.751 168.202V177.697H306.032V175.742H305.921C305.741 176.102 305.471 176.456 305.111 176.804C304.751 177.151 304.289 177.44 303.724 177.669C303.159 177.899 302.483 178.014 301.694 178.014ZM302.299 175.78C303.069 175.78 303.727 175.628 304.273 175.323C304.825 175.019 305.244 174.622 305.53 174.132C305.821 173.635 305.967 173.105 305.967 172.54V170.697C305.868 170.796 305.676 170.889 305.39 170.976C305.111 171.057 304.791 171.128 304.431 171.19C304.071 171.246 303.721 171.299 303.379 171.348C303.038 171.392 302.753 171.429 302.523 171.46C301.983 171.528 301.49 171.643 301.043 171.805C300.602 171.966 300.248 172.199 299.981 172.503C299.721 172.801 299.591 173.198 299.591 173.694C299.591 174.383 299.845 174.905 300.354 175.258C300.863 175.606 301.511 175.78 302.299 175.78ZM315.242 158.632V177.697H312.458V158.632H315.242ZM326.147 177.697V158.632H329.024V175.221H337.663V177.697H326.147ZM340.721 177.697V163.398H343.504V177.697H340.721ZM342.126 161.192C341.642 161.192 341.227 161.031 340.879 160.708C340.538 160.379 340.367 159.988 340.367 159.535C340.367 159.076 340.538 158.685 340.879 158.362C341.227 158.033 341.642 157.869 342.126 157.869C342.61 157.869 343.023 158.033 343.365 158.362C343.712 158.685 343.886 159.076 343.886 159.535C343.886 159.988 343.712 160.379 343.365 160.708C343.023 161.031 342.61 161.192 342.126 161.192ZM349.809 172.847L349.79 169.449H350.274L355.971 163.398H359.304L352.806 170.287H352.369L349.809 172.847ZM347.249 177.697V158.632H350.032V177.697H347.249ZM356.279 177.697L351.159 170.902L353.076 168.956L359.695 177.697H356.279ZM367.415 177.986C366.006 177.986 364.793 177.685 363.775 177.083C362.763 176.475 361.981 175.621 361.429 174.523C360.883 173.418 360.61 172.124 360.61 170.641C360.61 169.176 360.883 167.885 361.429 166.768C361.981 165.651 362.751 164.779 363.738 164.152C364.731 163.526 365.891 163.212 367.219 163.212C368.026 163.212 368.808 163.346 369.565 163.613C370.322 163.879 371.002 164.298 371.604 164.869C372.206 165.44 372.681 166.182 373.028 167.094C373.376 168 373.549 169.102 373.549 170.399V171.386H362.183V169.3H370.822C370.822 168.568 370.673 167.92 370.375 167.355C370.077 166.784 369.658 166.334 369.118 166.005C368.585 165.676 367.958 165.512 367.238 165.512C366.456 165.512 365.773 165.704 365.19 166.089C364.613 166.467 364.166 166.964 363.849 167.578C363.539 168.186 363.384 168.847 363.384 169.561V171.19C363.384 172.146 363.551 172.959 363.887 173.629C364.228 174.299 364.703 174.811 365.311 175.165C365.919 175.513 366.63 175.686 367.443 175.686C367.97 175.686 368.451 175.612 368.886 175.463C369.32 175.308 369.695 175.078 370.012 174.774C370.328 174.47 370.571 174.095 370.738 173.648L373.373 174.123C373.162 174.898 372.783 175.578 372.237 176.161C371.697 176.738 371.017 177.188 370.198 177.511C369.385 177.828 368.457 177.986 367.415 177.986ZM387.353 166.889L384.83 167.336C384.724 167.013 384.557 166.706 384.327 166.415C384.104 166.123 383.8 165.884 383.415 165.698C383.03 165.512 382.549 165.418 381.972 165.418C381.184 165.418 380.526 165.595 379.998 165.949C379.471 166.297 379.207 166.747 379.207 167.299C379.207 167.777 379.384 168.162 379.738 168.453C380.091 168.745 380.662 168.984 381.451 169.17L383.722 169.691C385.038 169.995 386.018 170.464 386.664 171.097C387.309 171.73 387.632 172.552 387.632 173.564C387.632 174.42 387.384 175.184 386.887 175.854C386.397 176.518 385.711 177.039 384.83 177.418C383.955 177.797 382.94 177.986 381.786 177.986C380.185 177.986 378.878 177.645 377.867 176.962C376.855 176.273 376.234 175.296 376.005 174.029L378.695 173.62C378.863 174.321 379.207 174.852 379.728 175.212C380.25 175.565 380.929 175.742 381.767 175.742C382.679 175.742 383.409 175.553 383.955 175.174C384.501 174.79 384.774 174.321 384.774 173.769C384.774 173.322 384.606 172.946 384.271 172.642C383.942 172.338 383.437 172.109 382.754 171.954L380.334 171.423C378.999 171.119 378.012 170.635 377.373 169.971C376.74 169.307 376.424 168.466 376.424 167.448C376.424 166.604 376.66 165.865 377.131 165.232C377.603 164.599 378.254 164.106 379.086 163.752C379.918 163.392 380.87 163.212 381.944 163.212C383.489 163.212 384.706 163.547 385.593 164.218C386.481 164.882 387.067 165.772 387.353 166.889Z" fill="#5A7184"/>
</g>
<defs>
<filter id="filter0_d_422_164" x="0.420059" y="0.872824" width="502.558" height="335.822" filterUnits="userSpaceOnUse" color-interpolation-filters="sRGB">
<feFlood flood-opacity="0" result="BackgroundImageFix"/>
<feColorMatrix in="SourceAlpha" type="matrix" values="0 0 0 0 0 0 0 0 0 0 0 0 0 0 0 0 0 0 127 0" result="hardAlpha"/>
<feOffset dy="26.6471"/>
<feGaussianBlur stdDeviation="30.5658"/>
<feComposite in2="hardAlpha" operator="out"/>
<feColorMatrix type="matrix" values="0 0 0 0 0 0 0 0 0 0 0 0 0 0 0 0 0 0 0.05 0"/>
<feBlend mode="normal" in2="BackgroundImageFix" result="effect1_dropShadow_422_164"/>
<feBlend mode="normal" in="SourceGraphic" in2="effect1_dropShadow_422_164" result="shape"/>
</filter>
<clipPath id="clip0_422_164">
<rect width="31.007" height="31.0068" fill="white" transform="matrix(1 0 0 -1 152.819 157.632)"/>
</clipPath>
</defs>
</svg>
