<svg width="67" height="67" viewBox="0 0 67 67" fill="none" xmlns="http://www.w3.org/2000/svg">
<g clip-path="url(#clip0_482_3002)">
<g clip-path="url(#clip1_482_3002)">
<path d="M33.9868 66.3467C52.2122 66.3467 66.9868 51.5721 66.9868 33.3467C66.9868 15.1213 52.2122 0.34668 33.9868 0.34668C15.7614 0.34668 0.986816 15.1213 0.986816 33.3467C0.986816 51.5721 15.7614 66.3467 33.9868 66.3467Z" fill="#2E2E2E"/>
<path d="M43.1691 29.7184C45.4888 31.3367 45.442 34.7856 43.0792 36.3404L32.2071 43.4946C29.5553 45.2395 26.0251 43.3486 26.0084 40.1742L25.9302 25.3807C25.9131 22.1379 29.5592 20.2236 32.2188 22.079L43.1691 29.7184Z" stroke="white" stroke-width="2"/>
</g>
</g>
<defs>
<clipPath id="clip0_482_3002">
<rect width="66" height="66" fill="white" transform="translate(0.986816 0.34668)"/>
</clipPath>
<clipPath id="clip1_482_3002">
<rect width="66" height="66" fill="white" transform="translate(0.986816 0.34668)"/>
</clipPath>
</defs>
</svg>
