<svg width="477" height="56" viewBox="0 0 477 56" fill="none" xmlns="http://www.w3.org/2000/svg">
<path d="M48.5207 0.672234C40.9326 1.12362 30.4453 2.34502 27.904 3.06193C26.9376 3.32745 26.7586 4.04436 27.5818 4.28333C27.8682 4.36299 30.2305 4.12402 32.8434 3.75229C43.2234 2.23881 45.6573 2.1326 66.2382 2.15915C98.273 2.18571 159.193 4.23023 204.22 6.77924C221.15 7.73512 239.834 8.92997 240.192 9.03618C240.586 9.1955 232.353 9.06273 199.925 8.50514C108.868 6.912 61.4062 7.54926 12.9067 11.0541C1.30978 11.9038 0.200195 12.0631 0.200195 13.0721C0.200195 14.7184 7.07245 15.1432 32.2349 14.9839C75.4728 14.7184 97.6287 15.0901 135.677 16.7363C168.463 18.1702 234.036 21.914 233.463 22.3388C233.427 22.392 228.631 22.2592 222.833 22.0468C195.701 21.0378 158.692 20.1881 124.76 19.7898C101.745 19.4978 55.3572 19.4978 42.6149 19.7633L34.7404 19.9226L34.4183 20.6661C33.8098 21.9671 34.4183 22.1264 41.899 22.5513C61.2272 23.7196 76.5466 24.3568 119.749 25.7641C206.69 28.6052 234.25 30.7294 344.171 42.8903C389.735 47.9352 414.862 50.5373 438.843 52.688C456.596 54.2812 474.028 55.6885 475.245 55.5822C476.784 55.476 477.392 54.6795 476.39 54.0953C475.817 53.7501 473.491 53.4581 466.368 52.9005C437.948 50.617 410.459 47.829 357.772 41.9344C234.107 28.1007 207.155 26.0031 114.917 23.1089C85.2443 22.1795 82.9894 21.9406 105.611 22.0733C196.811 22.6575 286.902 26.2155 377.458 32.8004C386.836 33.4908 424.812 36.4646 426.566 36.6505C428.821 36.8895 430.253 35.3494 428.571 34.5529C428.034 34.3139 422.844 33.8094 413.788 33.0925C242.304 19.5774 177.519 15.4353 99.5257 12.9659C88.3941 12.6207 77.871 12.5145 56.0372 12.5145C24.8616 12.5145 24.5394 12.488 48.3418 11.4524C64.4844 10.7355 73.54 10.4966 95.8748 10.2045C120.071 9.88585 145.054 10.0983 211.2 11.1604C233.642 11.5055 260.63 11.9304 271.153 12.0897L290.302 12.4083L314.82 14.0811C365.468 17.586 390.129 19.0995 418.763 20.4536C427.676 20.8785 428.069 20.8785 428.535 20.4271C429.179 19.7633 429.107 19.0464 428.392 18.7808C426.387 18.0108 413.895 15.9929 405.914 15.1697C391.274 13.6297 334.9 11.0541 297.819 10.231C288.191 10.0186 280.388 9.64688 267.037 8.77066C201.75 4.49575 158.405 2.45123 100.063 0.937756C85.9244 0.566025 53.0664 0.380157 48.5207 0.672234ZM378.174 15.6742C394.603 16.4708 406.486 17.2939 402.8 17.3736C400.831 17.4267 364.358 15.3556 363.678 15.1432C362.962 14.9573 364.931 15.037 378.174 15.6742Z" fill="#8B44FF"/>
</svg>
