<svg width="942" height="662" viewBox="0 0 942 662" fill="none" xmlns="http://www.w3.org/2000/svg">
<g clip-path="url(#clip0_425_2)">
<path fill-rule="evenodd" clip-rule="evenodd" d="M600.171 185.848C537.752 130.883 464.633 116.703 445.303 113.808C458.318 80.8197 478.436 31.7695 483.446 24.5048C485.059 24.2985 488.351 23.98 493.216 23.98C507.415 23.98 537.804 26.7564 581.768 45.3415C645.253 72.1814 662.248 102.377 665.587 109.761L600.171 185.848Z" fill="white"/>
<path d="M97.8086 105.994C97.8086 78.6272 75.9134 56.4417 48.9043 56.4417C21.8952 56.4417 0 78.6272 0 105.994C0 133.361 21.8952 155.547 48.9043 155.547C75.9134 155.547 97.8086 133.361 97.8086 105.994Z" fill="#15B9FF"/>
<path fill-rule="evenodd" clip-rule="evenodd" d="M493.215 20.3599C485.49 20.3599 481.521 21.1254 481.521 21.1254C477.008 22.5389 440.031 116.763 440.031 116.763C440.031 116.763 527.807 125.176 600.541 191.178L669.969 110.423C669.969 110.423 658.383 73.7627 583.348 42.0398C539.377 23.451 508.73 20.3599 493.215 20.3599ZM493.215 27.5992C507.108 27.5992 536.879 30.3339 580.188 48.6421C637.624 72.9229 656.184 100.067 661.073 109.25L599.761 180.565C562.861 149.007 523.093 131.572 495.589 122.397C476.083 115.89 460.115 112.556 450.544 110.939C464.929 74.6241 480.582 37.2401 485.835 27.8942C487.541 27.744 490.012 27.5992 493.215 27.5992Z" fill="#599FF4"/>
<path fill-rule="evenodd" clip-rule="evenodd" d="M452.819 124.981C452.819 124.982 453.147 125.013 453.786 125.083C463.382 126.125 542.232 136.055 591.756 178.805C592.15 179.142 592.758 179.119 593.119 178.749C593.477 178.381 593.451 177.809 593.06 177.472C539.523 131.343 453.092 123.208 453.012 123.182C452.484 123.13 452.01 123.492 451.958 123.991C451.904 124.489 452.289 124.931 452.819 124.981Z" fill="#2A1E17"/>
<path fill-rule="evenodd" clip-rule="evenodd" d="M527.447 120.127L559.647 61.3091L592.74 122.648L527.447 120.127Z" fill="#599FF4"/>
<path fill-rule="evenodd" clip-rule="evenodd" d="M533.708 119.287L534.564 119.7L565.9 62.4585L597.4 120.84L533.747 118.382L533.708 119.287L533.668 120.19L598.962 122.711C599.303 122.726 599.626 122.566 599.812 122.297C599.997 122.027 600.014 121.684 599.86 121.399L566.765 60.0604C566.602 59.7564 566.271 59.5645 565.909 59.5645C565.547 59.5628 565.216 59.7527 565.05 60.0549L532.852 118.873C532.7 119.148 532.71 119.476 532.876 119.742C533.04 120.009 533.34 120.178 533.668 120.19L533.708 119.287Z" fill="#2A1E17"/>
<path fill-rule="evenodd" clip-rule="evenodd" d="M503.396 17.6892C503.396 17.6892 503.759 17.7199 504.477 17.796C515.23 18.9163 603.592 30.0703 659.676 92.7232C660.016 93.105 660.625 93.1539 661.032 92.8318C661.438 92.5096 661.491 91.9395 661.149 91.5577C630.915 57.8061 591.524 38.9022 559.707 28.4252C527.887 17.9462 503.623 15.8921 503.569 15.8866C503.039 15.8413 502.571 16.2088 502.524 16.7065C502.475 17.2041 502.866 17.644 503.396 17.6892Z" fill="#2A1E17"/>
<path fill-rule="evenodd" clip-rule="evenodd" d="M552.926 277.437C547.612 273.768 544.126 271.304 544.126 271.304C545.599 269.46 568.887 246.151 582.368 227.369C582.368 227.369 555.101 278.938 552.926 277.437Z" fill="#2A1E17"/>
<path fill-rule="evenodd" clip-rule="evenodd" d="M222.122 108.012C222.824 109.103 223.455 109.876 224.241 110.406C225.027 110.94 225.945 111.134 226.873 111.127C228.632 111.114 230.685 110.598 234.261 110.345C234.596 110.32 234.939 110.309 235.289 110.309C238.757 110.303 242.923 111.512 246.608 113.726C250.3 115.937 253.506 119.135 255.195 123.048C256.965 127.12 257.59 129.533 257.579 130.865C257.575 131.603 257.419 131.972 257.215 132.249C257.009 132.526 256.68 132.757 256.189 133.021C256.096 133.077 255.676 133.227 255.122 133.368C253.144 133.884 249.317 134.545 245.925 135.368C244.223 135.783 242.624 136.237 241.358 136.768C240.724 137.037 240.171 137.321 239.71 137.665C239.261 138.008 238.856 138.434 238.718 139.043C238.612 139.534 238.952 140.01 239.474 140.109C239.994 140.208 240.502 139.888 240.607 139.399L240.678 139.293C240.795 139.148 241.125 138.902 241.613 138.663C243.332 137.799 246.784 136.985 249.947 136.332C251.533 136.003 253.059 135.703 254.308 135.427C254.932 135.288 255.489 135.156 255.957 135.024C256.431 134.89 256.803 134.77 257.144 134.594C257.709 134.287 258.321 133.914 258.787 133.294C259.257 132.677 259.512 131.859 259.506 130.865C259.496 129.055 258.776 126.534 256.98 122.368C255.104 118.033 251.61 114.578 247.644 112.2C243.673 109.824 239.222 108.503 235.289 108.499C234.893 108.499 234.499 108.512 234.114 108.54C230.423 108.81 228.193 109.328 226.873 109.317C226.168 109.31 225.79 109.212 225.357 108.931C224.923 108.645 224.41 108.081 223.776 107.082C223.501 106.653 222.91 106.513 222.453 106.77C221.996 107.027 221.849 107.583 222.122 108.012Z" fill="#2A1E17"/>
<path fill-rule="evenodd" clip-rule="evenodd" d="M417.083 548.174L410.37 537.513L386.553 574.808L392.803 579.325L417.083 548.174Z" fill="#F9A183"/>
<path fill-rule="evenodd" clip-rule="evenodd" d="M258.932 455.688C258.932 455.688 246.59 436.837 251.884 427.602L291.256 431.558L258.932 455.688Z" fill="#F9A183"/>
<path fill-rule="evenodd" clip-rule="evenodd" d="M258.93 455.689L261.288 460.783L254.017 487.429C253.099 490.786 254.286 494.339 257.078 496.603L293.085 446.596C296.507 441.846 295.728 435.461 291.256 431.558L283.21 424.536L258.93 455.689Z" fill="black"/>
<path fill-rule="evenodd" clip-rule="evenodd" d="M239.661 139.221C250.937 138.968 265.226 138.298 262.369 130.244C259.513 122.19 248.795 102.054 224.504 108.095C224.504 108.095 215.931 114.808 226.646 126.888C237.366 138.968 239.661 139.221 239.661 139.221Z" fill="#2A1E33"/>
<path fill-rule="evenodd" clip-rule="evenodd" d="M296.733 432.003C296.733 432.003 277.486 378.617 293.772 355.176C307.214 335.831 351.129 367.297 357.146 371.537L388.568 318.225C388.568 318.225 381.315 308.67 363.505 299.317C345.697 289.962 272.127 261.947 237.552 313.196C224.775 332.135 224.58 413.409 249.086 444.558L296.733 432.003Z" fill="#662CC5"/>
<path fill-rule="evenodd" clip-rule="evenodd" d="M297.645 431.713C297.645 431.713 297.501 431.312 297.243 430.55C295.436 425.225 288.186 402.478 288.192 381.833C288.186 371.853 289.897 362.393 294.579 355.669C296.046 353.563 297.86 352.129 299.969 351.198C302.079 350.267 304.504 349.846 307.163 349.846C315.992 349.827 327.269 354.583 336.82 359.8C346.387 365.011 354.259 370.631 356.568 372.26C356.995 372.561 357.597 372.479 357.917 372.079C358.237 371.679 358.15 371.113 357.725 370.813C355.411 369.181 347.468 363.506 337.788 358.235C328.091 352.968 316.689 348.053 307.163 348.035C304.29 348.035 301.575 348.491 299.153 349.559C296.729 350.623 294.611 352.308 292.966 354.681C287.963 361.896 286.272 371.668 286.266 381.833C286.275 405.855 295.811 432.246 295.821 432.294C295.993 432.766 296.54 433.02 297.042 432.861C297.548 432.699 297.817 432.186 297.648 431.713" fill="#2A1E17"/>
<path fill-rule="evenodd" clip-rule="evenodd" d="M388.569 318.225C374.279 332.357 331.911 401.204 322.382 434.106C309.639 478.12 314.429 514.624 384.476 586.098L418.333 539.768C418.333 539.768 394.529 505.808 398.973 473.795C405.401 427.48 440.484 382.576 458.235 354.093L388.569 318.225Z" fill="#662CC5"/>
<path fill-rule="evenodd" clip-rule="evenodd" d="M393.949 324.208L450.271 365.735L467.102 341.694L393.949 324.208Z" fill="#2A1E17"/>
<path fill-rule="evenodd" clip-rule="evenodd" d="M717.439 280.545C726.222 282.313 732.915 285.457 737.515 289.976C742.114 294.493 740.023 296.85 738.351 298.225C736.677 299.6 730.196 298.03 724.55 293.313C718.904 288.601 717.439 280.545 717.439 280.545Z" fill="#FF8A66"/>
<path fill-rule="evenodd" clip-rule="evenodd" d="M544.126 271.304C545.599 269.46 568.887 246.151 582.368 227.369C582.368 227.369 623.122 270.267 627.542 271.651C629.185 272.166 639.177 272.043 651.582 271.923C672.552 271.718 700.425 271.521 706.594 274.419C716.415 279.032 722.305 281.337 724.762 287.798C727.216 294.254 728.183 298.471 722.305 298.868C715.431 299.33 711.012 291.026 711.012 291.026C711.012 291.026 705.397 294.212 690.883 299.33C690.883 299.33 638.657 318.374 603.752 309.162C594.22 306.648 544.126 271.304 544.126 271.304Z" fill="#F9A183"/>
<path fill-rule="evenodd" clip-rule="evenodd" d="M227.561 99.9673C223.08 101.571 220.356 103.486 222.948 107.547C225.544 111.608 226.695 109.983 234.187 109.442C241.682 108.901 252.343 114.044 256.087 122.708C259.835 131.37 258.683 132.723 256.665 133.808C254.647 134.89 240.24 136.513 239.663 139.221C239.086 141.928 245.501 149.919 258.757 149.378L261.928 148.837C261.928 148.837 289.803 174.414 293.839 178.205C297.873 181.996 327.521 200.865 343.854 204.701C356.268 207.617 381.419 203.857 396.533 201.086C403.872 199.741 408.844 198.628 408.844 198.628C408.844 198.628 397.504 179.435 395.196 149.928C395.196 149.928 368.064 154.022 350.034 157.739C350.034 157.739 307.958 135.7 287.499 125.957C287.499 125.957 269.632 105.382 261.275 102.673C252.919 99.9673 233.611 97.801 227.561 99.9673Z" fill="#F9A183"/>
<path fill-rule="evenodd" clip-rule="evenodd" d="M396.533 201.087C403.872 199.742 408.844 198.629 408.844 198.629C408.844 198.629 395.126 182.381 392.821 152.874C392.821 152.874 386.618 159.153 388.546 175.866C390.971 196.871 396.533 201.087 396.533 201.087Z" fill="#2A1E17"/>
<path fill-rule="evenodd" clip-rule="evenodd" d="M392.157 149.572C392.157 149.572 392.536 185.631 402.82 200.674L406.507 199.288C406.507 199.288 358.047 252.548 342.373 287.35C339.809 293.044 442.991 354.963 458.235 354.095C458.235 354.095 508.506 282.012 525.699 260.645L544.179 274.097C544.179 274.097 580.423 239.615 582.369 227.37C582.369 227.37 547.363 187.35 518.72 175.631C490.081 163.915 464.488 143.842 433.722 144.387C407.09 144.857 392.157 149.572 392.157 149.572Z" fill="#FECB03"/>
<path fill-rule="evenodd" clip-rule="evenodd" d="M544.179 274.097L525.699 260.644L528.645 253.109L544.179 274.097Z" fill="#2A1E17"/>
<path fill-rule="evenodd" clip-rule="evenodd" d="M572.287 131.511C569.051 140.964 559.71 168.312 549.287 171.688C538.863 175.063 528.013 170.825 528.013 170.825L516.912 176.162C515.672 179.653 506.91 182.659 495.594 183.068C487.219 183.37 482.117 173.265 484.598 165.95C485.735 162.59 489.987 146.029 489.987 146.029C489.987 146.029 498.972 114.966 507.238 108.552C515.503 102.138 523.273 95.7853 545.335 104.163C579.115 116.993 572.287 131.511 572.287 131.511Z" fill="#F9A183"/>
<path fill-rule="evenodd" clip-rule="evenodd" d="M505.314 132.856C503.832 138.663 497.406 150.273 493.205 148.182C489.003 146.092 487.52 140.751 490.485 130.535C493.451 120.318 495.922 97.0978 504.328 92.917C512.731 88.738 516.438 93.6156 516.438 93.6156C516.438 93.6156 512.731 76.6628 523.606 74.3426C523.606 74.3426 527.313 72.7156 525.831 84.3257C525.831 84.3257 530.03 73.6441 543.625 75.0377C557.22 76.4312 561.916 94.3105 561.916 94.3105C561.916 94.3105 562.906 89.4349 569.084 89.4349C575.265 89.4349 584.655 98.0261 582.433 107.546C582.433 107.546 598.245 102.896 606.654 114.745C615.058 126.587 614.069 139.59 593.801 144.7C572.609 150.041 572.792 126.819 569.58 123.8C566.366 120.783 562.906 117.299 551.041 121.48C539.177 125.659 526.819 113.352 526.819 113.352C526.819 113.352 524.84 128.212 522.865 129.606C520.886 130.999 516.932 132.856 517.918 125.891C518.909 118.924 520.146 119.621 519.404 117.764C518.663 115.906 515.318 110.045 508.28 115.209C500.373 121.015 505.314 132.856 505.314 132.856Z" fill="#2A1E33"/>
<path fill-rule="evenodd" clip-rule="evenodd" d="M509.301 134.763C506.264 132.372 503.898 128.748 503.908 124.848C503.909 122.996 504.424 121.063 505.673 119.087C508.298 114.93 511.999 113.288 514.515 113.297C515.765 113.297 516.659 113.686 517.1 114.224C518.2 115.538 518.934 117.453 518.934 119.811C518.934 121.36 518.618 123.097 517.881 124.972C517.697 125.441 517.952 125.962 518.451 126.136C518.952 126.308 519.504 126.069 519.689 125.6C520.496 123.543 520.86 121.592 520.86 119.811C520.86 117.103 520.018 114.785 518.615 113.105C517.682 112.001 516.17 111.485 514.515 111.487C511.157 111.496 506.944 113.549 504.018 118.162C502.599 120.397 501.979 122.676 501.981 124.848C501.991 129.449 504.695 133.491 508.061 136.15C508.468 136.472 509.076 136.421 509.418 136.039C509.76 135.655 509.706 135.086 509.301 134.763Z" fill="#2A1E33"/>
<path fill-rule="evenodd" clip-rule="evenodd" d="M392.803 579.324L395.163 584.416L387.889 611.065C386.974 614.419 388.159 617.972 390.948 620.236L426.958 570.23C430.377 565.48 429.603 559.096 425.127 555.194L417.083 548.174L392.803 579.324Z" fill="black"/>
<path fill-rule="evenodd" clip-rule="evenodd" d="M517.358 93.3494C517.338 93.2933 516.624 91.1124 514.823 88.6167C513.026 86.1263 510.107 83.2903 505.68 82.0994C505.169 81.9636 504.635 82.2406 504.489 82.7219C504.344 83.2016 504.639 83.7029 505.152 83.8405C508.991 84.8685 511.583 87.3552 513.228 89.632C514.05 90.7686 514.626 91.8436 514.996 92.6291C515.181 93.0218 515.312 93.3404 515.397 93.5594L515.491 93.8073L515.516 93.8798C515.672 94.3575 516.211 94.6272 516.72 94.4806C517.229 94.3322 517.514 93.8272 517.358 93.3494Z" fill="#2A1E33"/>
<path fill-rule="evenodd" clip-rule="evenodd" d="M342.028 285.332L441.782 154.422C442.093 154.014 441.993 153.45 441.562 153.159C441.128 152.867 440.527 152.961 440.216 153.368L340.462 284.279C340.151 284.686 340.252 285.251 340.684 285.543C341.116 285.832 341.718 285.739 342.028 285.332Z" fill="#2A1E17"/>
<path fill-rule="evenodd" clip-rule="evenodd" d="M481.355 162.502C480.572 163.466 479.963 164.838 479.511 166.492C479.061 168.144 478.791 170.074 478.791 172.104C478.792 175.626 479.603 179.465 481.855 182.595C484.098 185.727 487.85 188.071 493.347 188.464C494.735 188.566 496.084 188.614 497.388 188.614C511.912 188.61 520.978 182.77 521.075 182.71C521.513 182.428 521.623 181.863 521.323 181.452C521.022 181.039 520.421 180.934 519.984 181.218L519.899 181.271C518.966 181.845 510.475 186.808 497.388 186.804C496.134 186.804 494.835 186.758 493.498 186.659C488.499 186.275 485.417 184.283 483.451 181.579C481.489 178.869 480.712 175.367 480.716 172.104C480.716 170.228 480.971 168.434 481.378 166.939C481.777 165.446 482.35 164.246 482.881 163.605C483.206 163.209 483.126 162.641 482.705 162.337C482.283 162.032 481.677 162.107 481.355 162.502Z" fill="#2A1E17"/>
<path fill-rule="evenodd" clip-rule="evenodd" d="M260.506 103.219C260.509 103.221 261.213 104.099 262.307 105.502C263.948 107.606 266.449 110.886 268.701 114.097C270.952 117.294 272.963 120.489 273.556 122.188C273.723 122.662 274.269 122.92 274.774 122.76C275.278 122.603 275.553 122.09 275.384 121.616C274.882 120.214 273.812 118.368 272.474 116.297C268.469 110.117 262.051 102.141 262.044 102.128C261.722 101.73 261.119 101.65 260.694 101.951C260.27 102.253 260.184 102.819 260.506 103.219Z" fill="#2A1E17"/>
<path fill-rule="evenodd" clip-rule="evenodd" d="M687.61 293.456C687.725 293.549 690.759 295.837 696.634 295.835C700.431 295.837 705.392 294.878 711.468 291.824C713.516 290.813 714.589 289.159 714.576 287.501C714.573 286.088 713.843 284.747 712.641 283.776C711.439 282.805 709.751 282.189 707.787 282.189C707.028 282.189 706.229 282.282 705.4 282.476C703.758 282.862 702.011 283.011 700.318 283.011C697.775 283.011 695.351 282.675 693.575 282.338C692.684 282.17 691.958 282.001 691.456 281.876C691.205 281.815 691.011 281.762 690.88 281.726L690.69 281.671C690.183 281.521 689.641 281.785 689.482 282.263C689.321 282.739 689.602 283.247 690.109 283.398C690.162 283.411 694.877 284.818 700.318 284.82C702.13 284.82 704.029 284.663 705.868 284.232C706.551 284.071 707.193 283.999 707.787 283.999C709.326 284.001 710.551 284.475 711.385 285.148C712.221 285.825 712.65 286.688 712.649 287.501C712.636 288.442 712.126 289.421 710.559 290.228C704.716 293.164 700.086 294.023 696.634 294.026C693.966 294.026 691.993 293.51 690.694 293.008C690.046 292.757 689.566 292.507 689.256 292.327L688.916 292.118L688.843 292.065L688.832 292.056L688.654 292.264L688.834 292.059L688.832 292.056L688.654 292.264L688.834 292.059C688.424 291.741 687.817 291.797 687.48 292.182C687.141 292.569 687.201 293.138 687.61 293.456Z" fill="#2A1E17"/>
<path fill-rule="evenodd" clip-rule="evenodd" d="M719.321 281.951C719.321 281.951 719.424 282.064 719.613 282.282C720.277 283.041 721.957 285.029 723.452 287.312C724.956 289.585 726.226 292.205 726.203 293.938L726.199 294.099C726.18 294.599 726.597 295.018 727.128 295.037C727.659 295.055 728.105 294.666 728.123 294.166L728.13 293.938C728.123 292.534 727.629 291.059 726.933 289.589C724.839 285.203 720.809 280.81 720.784 280.774C720.438 280.396 719.828 280.352 719.426 280.676C719.022 281.002 718.975 281.574 719.321 281.951Z" fill="#2A1E17"/>
<path fill-rule="evenodd" clip-rule="evenodd" d="M613.257 281.034L613.323 280.955C613.671 280.534 615.398 278.528 617.972 276.588C620.545 274.642 623.953 272.793 627.611 272.554C628.144 272.519 628.542 272.084 628.503 271.587C628.466 271.09 628.005 270.713 627.475 270.75C622.93 271.062 619.021 273.391 616.228 275.591C613.435 277.799 611.744 279.913 611.716 279.947C611.398 280.347 611.482 280.915 611.909 281.214C612.334 281.513 612.938 281.433 613.257 281.034Z" fill="#2A1E17"/>
<path fill-rule="evenodd" clip-rule="evenodd" d="M334.73 171.382L334.767 171.278C334.976 170.719 336.088 167.984 338.521 165.194C340.962 162.397 344.68 159.56 350.203 158.63C350.727 158.542 351.076 158.071 350.982 157.58C350.887 157.087 350.388 156.76 349.864 156.849C343.391 157.932 339.125 161.45 336.522 164.651C333.915 167.856 332.919 170.764 332.896 170.827C332.732 171.304 333.012 171.814 333.518 171.966C334.025 172.118 334.568 171.858 334.73 171.382Z" fill="#2A1E17"/>
<path fill-rule="evenodd" clip-rule="evenodd" d="M366.459 342.031L351.71 368.537L352.564 368.954L351.735 368.494C351.719 368.518 342.815 382.676 333.903 402.811C324.996 422.949 316.065 449.054 316.059 473.064C316.059 481.213 317.09 489.122 319.518 496.473C319.677 496.951 320.215 497.217 320.725 497.068C321.233 496.922 321.517 496.414 321.358 495.938C319 488.8 317.985 481.069 317.985 473.064C317.979 449.471 326.82 423.52 335.682 403.506C340.113 393.498 344.543 384.967 347.866 378.945C349.527 375.933 350.91 373.547 351.878 371.917C352.362 371.101 352.743 370.474 353 370.051C353.258 369.629 353.394 369.416 353.394 369.416L368.166 342.869C368.412 342.427 368.229 341.881 367.758 341.65C367.287 341.418 366.704 341.587 366.459 342.031Z" fill="#2A1E17"/>
<path fill-rule="evenodd" clip-rule="evenodd" d="M411.222 431.599L459.067 354.55L458.235 354.093L459.028 354.607C459.028 354.607 474.706 333.244 491.186 310.373C499.428 298.937 507.871 287.124 514.655 277.413C518.047 272.557 521.026 268.226 523.361 264.728C525.698 261.225 527.382 258.572 528.219 257.001L527.359 256.597L528.206 257.029L550.334 218.567C550.586 218.128 550.413 217.577 549.945 217.341C549.476 217.103 548.892 217.266 548.639 217.706L526.511 256.167L526.497 256.193C525.728 257.636 524.05 260.29 521.729 263.766C513.596 275.955 497.517 298.422 483.481 317.822C476.46 327.525 469.952 336.465 465.197 342.979C462.819 346.237 460.879 348.886 459.535 350.723C458.191 352.559 457.442 353.577 457.441 353.581L457.402 353.637L409.558 430.688C409.291 431.118 409.444 431.673 409.905 431.925C410.363 432.177 410.955 432.031 411.222 431.599Z" fill="#2A1E17"/>
<path fill-rule="evenodd" clip-rule="evenodd" d="M347.357 293.742C347.365 293.748 368.645 308.325 393.093 323.259C405.32 330.727 418.335 338.284 429.897 344.162C441.475 350.036 451.524 354.244 458.122 354.993C458.649 355.051 459.13 354.696 459.192 354.2C459.255 353.704 458.877 353.254 458.35 353.196C452.331 352.542 442.282 348.413 430.815 342.571C413.582 333.811 392.987 321.232 376.717 310.851C368.579 305.658 361.522 301.015 356.499 297.671C353.989 295.998 351.985 294.649 350.611 293.722C349.236 292.791 348.494 292.282 348.491 292.281C348.063 291.987 347.459 292.076 347.145 292.479C346.832 292.883 346.926 293.45 347.357 293.742Z" fill="#2A1E17"/>
<path fill-rule="evenodd" clip-rule="evenodd" d="M391.193 149.557V149.594C391.193 150.131 391.213 159.349 392.53 170.313C393.862 181.284 396.43 193.973 401.77 201.633C402.061 202.051 402.658 202.167 403.103 201.893C403.548 201.617 403.671 201.057 403.378 200.64C398.376 193.523 395.734 180.956 394.443 170.11C393.14 159.254 393.12 150.09 393.12 149.594V149.585C393.127 149.085 392.702 148.674 392.171 148.667C391.638 148.66 391.202 149.058 391.193 149.557Z" fill="#2A1E17"/>
<path fill-rule="evenodd" clip-rule="evenodd" d="M578.688 221.427C578.079 224.935 575.422 229.694 571.748 234.723C566.242 242.284 558.49 250.531 552.126 256.872C548.941 260.042 546.103 262.738 544.063 264.639C543.042 265.592 542.222 266.343 541.655 266.858C541.091 267.373 540.782 267.646 540.782 267.646C540.396 267.99 540.379 268.563 540.746 268.925C541.114 269.289 541.722 269.304 542.107 268.959C542.121 268.949 551.015 261.021 560.262 251.191C564.886 246.273 569.597 240.882 573.338 235.745C577.074 230.602 579.863 225.75 580.589 221.723C580.676 221.229 580.321 220.763 579.797 220.682C579.272 220.599 578.776 220.932 578.688 221.427Z" fill="#2A1E17"/>
<path fill-rule="evenodd" clip-rule="evenodd" d="M319.684 404.556C319.684 407.176 317.422 409.301 314.633 409.301C311.841 409.301 309.581 407.176 309.581 404.556C309.581 401.935 311.841 399.809 314.633 399.809C317.422 399.809 319.684 401.935 319.684 404.556Z" fill="#2A1E17"/>
<path fill-rule="evenodd" clip-rule="evenodd" d="M788.626 506.544L789.579 506.413L787.094 490.263L799.89 498.255L793.485 499.568C793.263 499.613 793.07 499.726 792.931 499.895L787.867 505.987L788.626 506.544L789.385 507.1L794.235 501.265L802.521 499.568C802.899 499.491 803.192 499.209 803.263 498.851C803.335 498.494 803.17 498.132 802.849 497.932L786.368 487.635C786.05 487.437 785.639 487.432 785.317 487.624C784.998 487.814 784.826 488.164 784.881 488.519L787.672 506.673C787.728 507.033 788.006 507.324 788.377 507.418C788.752 507.513 789.146 507.388 789.385 507.1L788.626 506.544Z" fill="#2A1E17"/>
<path fill-rule="evenodd" clip-rule="evenodd" d="M242.642 195.957C238.204 192.28 233.3 190.313 228.612 190.313C223.592 190.302 218.882 192.617 215.555 197.23C212.217 201.841 210.183 208.702 210.183 217.952C210.19 235.735 217.695 262.413 238.566 299.252C259.441 336.089 293.699 383.073 347.29 441.38C383.486 480.765 417.123 508.271 446.379 525.95C475.638 543.623 500.507 551.49 519.259 551.498C528.762 551.498 536.711 549.465 542.804 545.607C548.897 541.754 553.089 536.069 555.088 528.947C557.698 519.668 558.813 511.235 558.813 503.639C558.816 485.988 552.781 472.868 545.561 464.172C541.949 459.822 538.044 456.574 534.432 454.401C530.81 452.23 527.512 451.11 524.934 451.099C523.72 451.099 522.625 451.358 521.786 451.999C520.943 452.639 520.492 453.657 520.503 454.774C520.509 456.094 521.039 457.609 522.105 459.399C523.172 461.189 524.794 463.253 527.07 465.614C538.666 477.632 556.18 486.908 577.265 493.205C598.352 499.498 623.023 502.802 648.974 502.805C689.332 502.802 732.79 494.808 770.637 477.539C789.402 468.976 801.591 459.336 809.089 449.425C816.589 439.518 819.365 429.345 819.365 419.838C819.365 407.685 814.861 396.624 810.002 388.344C807.573 384.204 805.049 380.758 802.94 378.212C801.885 376.939 800.933 375.892 800.141 375.09C799.343 374.286 798.734 373.743 798.253 373.417C797.819 373.129 797.218 373.226 796.91 373.633C796.602 374.04 796.704 374.605 797.139 374.895C797.398 375.063 797.991 375.571 798.728 376.322C801.346 378.968 806.054 384.728 810.074 392.377C814.098 400.031 817.44 409.576 817.44 419.838C817.437 429.018 814.781 438.772 807.52 448.377C800.254 457.98 788.348 467.442 769.794 475.91C732.261 493.042 689.064 500.997 648.974 500.994C623.198 500.994 598.706 497.706 577.848 491.48C556.987 485.256 539.769 476.088 528.499 464.4C526.29 462.112 524.753 460.139 523.784 458.514C522.811 456.89 522.424 455.612 522.43 454.774C522.443 454.049 522.655 453.681 523.01 453.397C523.368 453.116 524.004 452.907 524.934 452.91C526.901 452.899 529.989 453.867 533.394 455.924C543.644 462.093 556.889 477.756 556.887 503.639C556.887 511.068 555.796 519.345 553.225 528.486C551.321 535.237 547.426 540.492 541.727 544.107C536.025 547.719 528.476 549.688 519.259 549.688C501.078 549.696 476.475 541.991 447.421 524.429C418.364 506.872 384.847 479.477 348.747 440.199C295.228 381.967 261.05 335.078 240.267 298.401C219.48 261.731 212.104 235.26 212.11 217.952C212.107 208.947 214.106 202.441 217.148 198.249C220.201 194.059 224.222 192.134 228.612 192.123C232.716 192.121 237.196 193.857 241.367 197.315C241.766 197.646 242.374 197.61 242.727 197.235C243.078 196.861 243.041 196.289 242.642 195.957Z" fill="#2A1E17"/>
<path fill-rule="evenodd" clip-rule="evenodd" d="M776.629 476.356C776.629 478.975 774.369 481.103 771.577 481.103C768.787 481.103 766.525 478.975 766.525 476.356C766.525 473.734 768.787 471.609 771.577 471.609C774.369 471.609 776.629 473.734 776.629 476.356Z" fill="#2A1E17"/>
<path fill-rule="evenodd" clip-rule="evenodd" d="M698.538 515.882L848.285 436.586C848.749 436.342 848.914 435.79 848.652 435.353C848.39 434.919 847.804 434.766 847.339 435.009L697.591 514.306C697.126 514.551 696.963 515.103 697.225 515.538C697.485 515.973 698.073 516.128 698.538 515.882Z" fill="#2A1E17"/>
<path fill-rule="evenodd" clip-rule="evenodd" d="M250.174 200.473C250.174 203.094 247.91 205.22 245.12 205.22C242.331 205.22 240.069 203.094 240.069 200.473C240.069 197.853 242.331 195.726 245.12 195.726C247.91 195.726 250.174 197.853 250.174 200.473Z" fill="#2A1E17"/>
<path fill-rule="evenodd" clip-rule="evenodd" d="M384.776 102.485C384.776 108.11 379.926 112.667 373.937 112.667C367.953 112.667 363.1 108.11 363.1 102.485C363.1 96.8618 367.953 92.3027 373.937 92.3027C379.926 92.3027 384.776 96.8618 384.776 102.485Z" fill="#FB847F"/>
<path fill-rule="evenodd" clip-rule="evenodd" d="M177.263 24.8237C174.631 24.8237 172.498 26.8273 172.498 29.2995C172.498 31.7717 174.631 33.7752 177.263 33.7752C179.894 33.7752 182.029 31.7717 182.029 29.2995C182.029 26.8273 179.894 24.8237 177.263 24.8237Z" fill="#599FF4"/>
<path fill-rule="evenodd" clip-rule="evenodd" d="M820.456 576.291C820.456 578.764 818.324 580.767 815.693 580.767C813.063 580.767 810.928 578.764 810.928 576.291C810.928 573.819 813.063 571.813 815.693 571.813C818.324 571.813 820.456 573.819 820.456 576.291Z" fill="#FE7C48"/>
<path fill-rule="evenodd" clip-rule="evenodd" d="M730.559 374.139L679.34 351.555C675.208 349.732 675.279 344.189 679.457 342.46L774.75 303.069C776.099 302.512 777.635 302.505 778.989 303.051L844.443 329.446L730.559 374.139Z" fill="#2A1E33"/>
<path fill-rule="evenodd" clip-rule="evenodd" d="M727.387 299.921C727.517 319.833 730.559 374.138 730.559 374.138L844.443 329.445L841.889 253.88C841.733 249.242 836.6 246.249 832.108 248.173L734.053 290.151C729.977 291.895 727.359 295.714 727.387 299.921Z" fill="#737373"/>
<path fill-rule="evenodd" clip-rule="evenodd" d="M730.931 374.973L844.813 330.282C845.181 330.137 845.418 329.792 845.404 329.417L842.851 253.851L842.848 253.802C842.838 253.733 842.695 252.088 841.697 250.352C841.197 249.485 840.47 248.589 839.414 247.909C838.36 247.225 836.98 246.778 835.298 246.781C834.261 246.781 833.112 246.947 831.83 247.307C831.322 247.449 831.033 247.954 831.185 248.434C831.339 248.912 831.875 249.183 832.386 249.04C833.514 248.722 834.479 248.592 835.298 248.592C836.629 248.595 837.577 248.923 838.323 249.401C839.436 250.113 840.111 251.243 840.486 252.227C840.672 252.716 840.787 253.164 840.85 253.481L840.916 253.847L840.927 253.94L840.93 253.958L841.889 253.88L840.927 253.908L843.458 328.852L730.19 373.303C729.698 373.496 729.465 374.027 729.671 374.486C729.876 374.947 730.44 375.164 730.931 374.973Z" fill="#2A1E17"/>
<path fill-rule="evenodd" clip-rule="evenodd" d="M786.568 320.178L794.256 303.103C794.463 302.644 794.234 302.111 793.745 301.918C793.254 301.722 792.689 301.938 792.482 302.397L784.793 319.472C784.585 319.931 784.814 320.463 785.305 320.657C785.795 320.852 786.359 320.637 786.568 320.178Z" fill="#2A1E17"/>
<path fill-rule="evenodd" clip-rule="evenodd" d="M794.256 320.178L801.944 303.103C802.152 302.644 801.923 302.111 801.433 301.918C800.945 301.722 800.378 301.938 800.172 302.397L792.481 319.472C792.275 319.931 792.504 320.463 792.994 320.657C793.483 320.852 794.05 320.637 794.256 320.178Z" fill="#2A1E17"/>
<path fill-rule="evenodd" clip-rule="evenodd" d="M202.569 501.587C202.569 504.06 200.436 506.065 197.803 506.065C195.172 506.065 193.041 504.06 193.041 501.587C193.041 499.117 195.172 497.112 197.803 497.112C200.436 497.112 202.569 499.117 202.569 501.587Z" fill="#FB847F"/>
<path fill-rule="evenodd" clip-rule="evenodd" d="M606.152 523.763C606.152 527.198 603.187 529.982 599.532 529.982C595.874 529.982 592.912 527.198 592.912 523.763C592.912 520.328 595.874 517.545 599.532 517.545C603.187 517.545 606.152 520.328 606.152 523.763Z" fill="#FB847F"/>
<path fill-rule="evenodd" clip-rule="evenodd" d="M247.182 567.955C254.936 571.448 277.492 580.26 307.345 580.076C308.977 580.065 310.243 581.424 310.037 582.945L305.879 613.941C305.733 615.046 304.847 615.926 303.681 616.133C295.249 617.618 261.261 622.002 235.836 601.745C235.042 601.114 234.721 600.096 234.991 599.153L243.393 569.604C243.832 568.06 245.649 567.267 247.182 567.955Z" fill="#FFF7DC"/>
<path fill-rule="evenodd" clip-rule="evenodd" d="M249.386 577.591C249.39 577.597 253.068 582.451 257.41 587.663C259.582 590.271 261.918 592.967 264.056 595.2C266.208 597.438 268.096 599.194 269.622 600.017C270.264 600.352 270.992 600.459 271.785 600.461C274.036 600.45 277.044 599.574 280.457 598.305C290.638 594.495 304.077 586.961 304.1 586.95C304.556 586.695 304.707 586.139 304.436 585.71C304.161 585.282 303.57 585.141 303.113 585.396C303.113 585.398 302.745 585.602 302.081 585.966C299.75 587.241 293.803 590.437 287.594 593.301C284.49 594.734 281.322 596.085 278.523 597.068C275.733 598.055 273.279 598.66 271.785 598.651C271.188 598.655 270.772 598.554 270.57 598.441C269.478 597.876 267.562 596.168 265.488 593.991C262.354 590.715 258.71 586.344 255.863 582.8C254.438 581.029 253.211 579.463 252.338 578.342C251.467 577.218 250.955 576.542 250.955 576.542C250.647 576.135 250.046 576.039 249.612 576.329C249.178 576.618 249.076 577.185 249.386 577.592" fill="#2A1E17"/>
<path fill-rule="evenodd" clip-rule="evenodd" d="M283.251 597.158L298.682 612.06C299.053 612.417 299.663 612.425 300.045 612.077C300.426 611.729 300.433 611.155 300.062 610.797L284.633 595.896C284.261 595.538 283.652 595.53 283.27 595.878C282.889 596.228 282.879 596.799 283.251 597.158Z" fill="#2A1E17"/>
<path fill-rule="evenodd" clip-rule="evenodd" d="M262.253 592.783L244.206 597.391C243.693 597.522 243.388 598.019 243.53 598.502C243.669 598.983 244.198 599.267 244.711 599.137L262.757 594.529C263.272 594.398 263.574 593.901 263.436 593.418C263.295 592.936 262.767 592.652 262.253 592.783Z" fill="#2A1E17"/>
<path fill-rule="evenodd" clip-rule="evenodd" d="M702.402 217.482H719.639V201.287H702.402V217.482Z" fill="#F3BB75"/>
<path fill-rule="evenodd" clip-rule="evenodd" d="M704.739 419.732L714.985 436.407H694.492L704.739 419.732Z" fill="#599FF4"/>
<path fill-rule="evenodd" clip-rule="evenodd" d="M290.437 50.3857L291.4 50.4148L292.735 12.5657V12.5023L292.727 12.0969C292.732 10.6255 293.067 9.81469 293.523 9.30974C293.98 8.80481 294.675 8.4917 295.688 8.27995C302.304 6.90448 317.024 3.82776 335.599 3.82595C347.703 3.82595 361.436 5.13446 375.606 9.07085C377.496 9.59751 378.381 10.2491 378.832 10.8608C379.282 11.4743 379.388 12.1729 379.39 13.0308C379.39 13.3058 379.379 13.5937 379.369 13.8904V13.8886L378.074 49.9732C378.039 50.8835 377.579 51.6798 376.792 52.2897C376.006 52.896 374.898 53.2815 373.668 53.2797C373.399 53.2797 373.123 53.2616 372.846 53.2236C363.24 51.9042 350.601 51.4119 337.493 51.4101C336.058 51.4101 334.615 51.4174 333.173 51.4282C318.051 51.5494 304.579 52.6009 295.085 54.3168C294.752 54.3782 294.454 54.4036 294.186 54.4036C293.123 54.3855 292.571 54.0488 292.105 53.4353C291.652 52.8164 291.39 51.83 291.394 50.6971L291.4 50.4183V50.4148L290.437 50.3857L289.476 50.3532L289.468 50.6971C289.472 52.0689 289.753 53.3901 290.51 54.4488C291.254 55.5167 292.579 56.2316 294.186 56.2138C294.589 56.2138 295.008 56.1737 295.449 56.0939C304.76 54.4091 318.157 53.3557 333.189 53.2381C334.626 53.2272 336.061 53.2199 337.493 53.2199C350.545 53.2199 363.128 53.7159 372.567 55.0154C372.938 55.066 373.306 55.0895 373.668 55.0895C375.321 55.0895 376.855 54.5791 378.013 53.6905C379.167 52.8074 379.949 51.5115 379.999 50.0346L381.293 13.9501V13.9483C381.303 13.6588 381.316 13.3529 381.316 13.0308C381.319 12.0535 381.199 10.897 380.417 9.83278C379.636 8.77041 378.286 7.92522 376.153 7.33522C361.766 3.3391 347.849 2.01611 335.599 2.01611C316.807 2.01611 301.91 5.13265 295.273 6.51174C294.069 6.7615 292.905 7.20491 292.057 8.13698C291.21 9.07085 290.797 10.3794 290.801 12.0969L290.81 12.571L291.774 12.5367L290.81 12.5059L289.476 50.355V50.3532L290.437 50.3857Z" fill="#2A1E17"/>
<path fill-rule="evenodd" clip-rule="evenodd" d="M302.616 44.8513L303.348 45.4395L323.733 23.0175L346.312 43.95L346.988 43.3057L347.287 42.4443C345.162 41.8054 341.7 41.6082 337.479 41.6008C323.786 41.6027 302.521 43.9519 302.502 43.9537L302.616 44.8513L302.727 45.7508C302.732 45.7508 304.051 45.6042 306.252 45.3852C312.855 44.7265 327.362 43.4107 337.479 43.4107C341.603 43.4053 345.039 43.6496 346.69 44.1654C347.115 44.2957 347.577 44.1346 347.811 43.7763C348.044 43.4162 347.982 42.9564 347.664 42.6614L324.35 21.0467C324.159 20.8693 323.902 20.7752 323.633 20.786C323.365 20.7969 323.116 20.911 322.941 21.1027L301.881 44.2631C301.625 44.5473 301.579 44.9508 301.766 45.2784C301.95 45.606 302.334 45.7942 302.727 45.7508L302.616 44.8513Z" fill="#2A1E17"/>
<path fill-rule="evenodd" clip-rule="evenodd" d="M337.186 33.1195L353.642 20.7456L367.011 29.7079L367.499 43.3215L347.035 42.4003C346.502 42.3768 346.052 42.7623 346.025 43.2618C346 43.7614 346.41 44.1848 346.942 44.2083L368.451 45.1748C368.719 45.1875 368.982 45.0934 369.174 44.916C369.364 44.7386 369.469 44.4925 369.46 44.241L368.919 29.1993C368.909 28.9188 368.759 28.6583 368.517 28.4935L354.17 18.8742C353.819 18.639 353.344 18.6517 353.009 18.905L335.982 31.706C335.566 32.0173 335.499 32.5873 335.832 32.9783C336.165 33.3675 336.77 33.4308 337.186 33.1195Z" fill="#2A1E17"/>
<path fill-rule="evenodd" clip-rule="evenodd" d="M311.78 19.3794L310.825 19.4826L310.838 19.707C310.836 20.2736 310.576 20.7966 310.085 21.2236C309.594 21.6454 308.871 21.9494 308.01 21.9928L307.794 21.9983C306.924 22.0001 306.115 21.725 305.522 21.2942C304.928 20.8635 304.567 20.3025 304.496 19.7034L304.483 19.4807C304.483 18.9143 304.745 18.3895 305.236 17.9623C305.727 17.5407 306.45 17.2384 307.309 17.1931L307.528 17.1878C308.397 17.1859 309.206 17.461 309.797 17.8918C310.391 18.3226 310.751 18.8853 310.825 19.4826L311.78 19.3794L312.738 19.2781C312.596 18.1235 311.913 17.137 310.974 16.4583C310.032 15.7778 308.822 15.3798 307.528 15.3779L307.203 15.387C305.926 15.4521 304.779 15.9046 303.936 16.6285C303.094 17.347 302.554 18.3641 302.556 19.4807L302.581 19.9098C302.722 21.0626 303.408 22.049 304.346 22.7277C305.288 23.41 306.497 23.8081 307.794 23.8081L308.116 23.8009C309.395 23.7339 310.542 23.2815 311.385 22.5575C312.227 21.8391 312.765 20.8219 312.765 19.707L312.738 19.2781L311.78 19.3794Z" fill="#2A1E17"/>
<path fill-rule="evenodd" clip-rule="evenodd" d="M697.686 542.117L696.837 542.549L710.965 567.057L710.999 567.113C711.576 567.962 711.752 568.564 711.751 568.979C711.747 569.522 711.487 569.945 710.838 570.523C704.807 575.773 686.562 591.683 659.87 597.872C659.26 598.014 658.763 598.07 658.364 598.07C657.531 598.059 657.159 597.864 656.808 597.573C656.463 597.276 656.176 596.8 655.86 596.244L642.404 572.871C642.236 572.579 642.159 572.273 642.156 571.948C642.145 570.983 642.929 569.836 644.308 569.315C651.68 566.513 661.007 561.768 670.257 556.585C679.823 551.22 687.974 545.841 693.344 541.422C693.91 540.961 694.339 540.839 694.688 540.836C695.029 540.838 695.376 540.961 695.759 541.25C696.139 541.54 696.521 541.994 696.837 542.549L697.686 542.117L698.531 541.687C698.121 540.976 697.613 540.337 696.976 539.849C696.349 539.364 695.56 539.026 694.688 539.026C693.788 539.024 692.883 539.39 692.074 540.061C686.846 544.367 678.76 549.711 669.268 555.03C660.071 560.187 650.788 564.903 643.588 567.637C641.559 568.41 640.242 570.121 640.231 571.948C640.231 572.556 640.385 573.169 640.709 573.732L654.167 597.104C654.48 597.643 654.839 598.316 655.496 598.898C656.149 599.484 657.137 599.891 658.364 599.88C658.954 599.88 659.601 599.799 660.333 599.628C687.564 593.31 706.067 577.133 712.148 571.85C712.966 571.147 713.684 570.203 713.678 568.979C713.675 568.086 713.317 567.162 712.626 566.139L711.812 566.626L712.658 566.195L698.531 541.687L697.686 542.117Z" fill="#2A1E17"/>
<path fill-rule="evenodd" clip-rule="evenodd" d="M692.138 549.885L691.19 549.725L687.16 570.835L664.802 565.487L664.563 566.363L664.769 567.248C666.537 566.874 669.014 565.663 671.93 564.04C680.616 559.187 692.703 550.615 692.718 550.606L692.138 549.885L691.558 549.162C691.555 549.164 690.221 550.109 688.116 551.552C684.961 553.719 680.079 556.998 675.435 559.845C673.113 561.267 670.849 562.58 668.902 563.588C666.964 564.596 665.301 565.294 664.359 565.48C663.921 565.568 663.609 565.926 663.602 566.348C663.594 566.769 663.893 567.137 664.326 567.24L687.688 572.829C687.949 572.891 688.222 572.849 688.447 572.713C688.673 572.576 688.827 572.361 688.875 572.112L693.086 550.043C693.156 549.677 692.98 549.307 692.643 549.113C692.307 548.919 691.875 548.937 691.558 549.162L692.138 549.885Z" fill="#2A1E17"/>
<path fill-rule="evenodd" clip-rule="evenodd" d="M674.585 569.326L669.094 582.765L657.373 581.765L651.891 573.609L665.01 567.166C665.482 566.934 665.664 566.387 665.419 565.944C665.172 565.5 664.59 565.328 664.118 565.56L650.072 572.459C649.834 572.575 649.658 572.784 649.589 573.026C649.518 573.27 649.561 573.531 649.704 573.744L655.999 583.11C656.158 583.348 656.428 583.502 656.726 583.528L669.646 584.629C670.073 584.664 670.477 584.429 670.632 584.051L676.383 569.975C676.573 569.508 676.324 568.985 675.829 568.806C675.332 568.626 674.775 568.859 674.585 569.326Z" fill="#2A1E17"/>
<path fill-rule="evenodd" clip-rule="evenodd" d="M696.395 569.266L697.166 568.723C696.995 568.506 696.918 568.272 696.915 568.006C696.912 567.514 697.226 566.905 697.896 566.49C698.338 566.214 698.838 566.084 699.297 566.084C699.914 566.086 700.415 566.31 700.693 566.662C700.865 566.879 700.942 567.113 700.944 567.376C700.948 567.868 700.633 568.478 699.961 568.895C699.52 569.168 699.021 569.3 698.561 569.299C697.943 569.296 697.443 569.074 697.166 568.723L695.625 569.808C696.334 570.692 697.452 571.11 698.561 571.108C699.4 571.108 700.262 570.876 701.025 570.404C702.176 569.687 702.866 568.556 702.87 567.376C702.872 566.751 702.664 566.109 702.235 565.574C701.525 564.69 700.408 564.272 699.297 564.274C698.457 564.276 697.595 564.507 696.835 564.98C695.681 565.697 694.992 566.827 694.989 568.006C694.988 568.634 695.195 569.273 695.625 569.808L696.395 569.266Z" fill="#2A1E17"/>
<path fill-rule="evenodd" clip-rule="evenodd" d="M628.911 123.72L686.311 164.993C687.569 165.898 689.372 165.658 690.315 164.459L698.981 153.425C699.883 152.274 699.659 150.657 698.47 149.763L641.88 107.225C640.616 106.275 638.764 106.512 637.813 107.743L628.337 120.044C627.435 121.213 627.69 122.843 628.911 123.72Z" fill="white"/>
<path fill-rule="evenodd" clip-rule="evenodd" d="M628.91 123.72L628.325 124.438L685.724 165.711C686.41 166.206 687.226 166.446 688.029 166.446C689.19 166.449 690.344 165.943 691.089 164.997L699.755 153.962C700.254 153.327 700.496 152.579 700.496 151.844C700.498 150.798 700.005 149.758 699.07 149.057L642.481 106.519C641.782 105.992 640.939 105.735 640.11 105.735C638.942 105.735 637.776 106.248 637.032 107.212L627.556 119.514C627.07 120.142 626.834 120.878 626.834 121.604C626.831 122.675 627.35 123.739 628.325 124.44L628.91 123.72L629.494 123.002C629.012 122.654 628.761 122.136 628.76 121.604C628.76 121.246 628.874 120.889 629.116 120.574L638.593 108.273C638.96 107.795 639.529 107.547 640.11 107.545C640.524 107.547 640.928 107.67 641.278 107.931L697.869 150.469C698.329 150.817 698.568 151.324 698.569 151.844C698.569 152.209 698.452 152.57 698.204 152.887L689.538 163.921C689.169 164.392 688.606 164.634 688.029 164.637C687.631 164.637 687.236 164.521 686.894 164.275L629.496 123.002L628.91 123.72Z" fill="#2A1E17"/>
<path fill-rule="evenodd" clip-rule="evenodd" d="M633.158 121.88L647.077 131.056L655.292 121.845L641.367 110.936L633.158 121.88Z" fill="#FB847F"/>
<path fill-rule="evenodd" clip-rule="evenodd" d="M652.32 134.634L666.256 145.022L673.726 136.388L659.697 125.691L652.32 134.634Z" fill="#FE7C48"/>
<path fill-rule="evenodd" clip-rule="evenodd" d="M670.946 149.012L684.867 158.19L691.496 150.185L678.309 139.819L670.946 149.012Z" fill="#599FF4"/>
<path fill-rule="evenodd" clip-rule="evenodd" d="M743.439 66.0184L756.519 169.281C756.804 171.546 759.013 173.15 761.419 172.841L783.566 169.992C785.876 169.695 787.524 167.736 787.298 165.556L776.563 61.778C776.323 59.4578 774.067 57.7982 771.614 58.1366L747.123 61.5011C744.793 61.8214 743.16 63.8249 743.439 66.0184Z" fill="white"/>
<path fill-rule="evenodd" clip-rule="evenodd" d="M743.44 66.0189L742.484 66.1257L755.562 169.388C755.886 171.925 758.176 173.784 760.825 173.784C761.064 173.784 761.307 173.77 761.549 173.737L783.698 170.888C786.347 170.546 788.284 168.421 788.284 165.956L788.258 165.47L777.524 61.6898C777.253 59.1017 774.937 57.1886 772.249 57.1886C771.993 57.1869 771.735 57.205 771.475 57.2411L746.985 60.6056C744.352 60.9694 742.447 63.0888 742.447 65.532C742.447 65.7275 742.458 65.9266 742.484 66.1275V66.1257L743.44 66.0189L744.396 65.9103L744.373 65.532C744.373 63.981 745.585 62.6254 747.263 62.3974L771.754 59.0311L772.249 58.9967C773.952 58.9967 775.438 60.2166 775.607 61.8653L786.341 165.643L786.357 165.956C786.357 167.52 785.124 168.88 783.436 169.094L761.29 171.945L760.825 171.974C759.144 171.974 757.678 170.79 757.475 169.174L744.396 65.9121V65.9103L743.44 66.0189Z" fill="#2A1E17"/>
<path fill-rule="evenodd" clip-rule="evenodd" d="M750.131 68.4327L754.275 92.5848L773.805 91.2202L771.682 65.2129L750.131 68.4327Z" fill="#FB847F"/>
<path fill-rule="evenodd" clip-rule="evenodd" d="M755.688 101.809L758.437 127.276L776.503 125.759L774.014 99.8691L755.688 101.809Z" fill="#69B051"/>
<path fill-rule="evenodd" clip-rule="evenodd" d="M758.779 136.375L762.925 160.528L779.356 158.817L777.385 134.152L758.779 136.375Z" fill="#FE7C48"/>
<path fill-rule="evenodd" clip-rule="evenodd" d="M714.888 88.0046L751.108 188.028C751.729 189.744 753.732 190.65 755.546 190.034L778.232 182.362C779.98 181.772 780.916 179.991 780.357 178.33L746.346 77.3193C745.75 75.551 743.702 74.6118 741.852 75.2543L716.957 83.9161C715.202 84.5279 714.283 86.3413 714.888 88.0046Z" fill="white"/>
<path fill-rule="evenodd" clip-rule="evenodd" d="M714.888 88.0048L713.975 88.2962L750.196 188.319C750.823 190.048 752.541 191.133 754.377 191.133C754.873 191.133 755.38 191.053 755.871 190.886L778.56 183.213C780.355 182.605 781.482 181.016 781.482 179.309C781.482 178.894 781.415 178.472 781.276 178.059L747.262 77.0462C746.663 75.2691 744.92 74.1451 743.051 74.147C742.541 74.147 742.02 74.2302 741.517 74.4057L716.622 83.0676C714.845 83.6884 713.737 85.2683 713.737 86.9588C713.737 87.4022 713.815 87.8565 713.975 88.298V88.2962L714.888 88.0048L715.799 87.7116C715.707 87.4601 715.664 87.2085 715.664 86.9588C715.666 86.0068 716.288 85.1128 717.291 84.7653L742.186 76.1033C742.475 76.0039 742.764 75.9568 743.051 75.9568C744.103 75.9568 745.091 76.5902 745.426 77.5911L779.438 178.604C779.518 178.839 779.555 179.075 779.555 179.309C779.554 180.27 778.921 181.17 777.907 181.51L755.221 189.183C754.939 189.278 754.656 189.324 754.377 189.324C753.343 189.321 752.371 188.711 752.021 187.736L715.799 87.7135V87.7116L714.888 88.0048Z" fill="#2A1E17"/>
<path fill-rule="evenodd" clip-rule="evenodd" d="M722.242 89.8265L731.644 112.643L750.446 107.491L742.609 82.4678L722.242 89.8265Z" fill="#599FF4"/>
<path fill-rule="evenodd" clip-rule="evenodd" d="M735.068 121.389L743.393 145.762L760.729 140.749L752.565 115.91L735.068 121.389Z" fill="#F9A183"/>
<path fill-rule="evenodd" clip-rule="evenodd" d="M745.744 154.594L755.145 177.409L770.84 172.524L763.452 148.783L745.744 154.594Z" fill="#FE7C48"/>
<path fill-rule="evenodd" clip-rule="evenodd" d="M187.334 136.256L184.447 133.285L174.892 141.484L177.779 144.453C178.996 145.705 181.064 145.794 182.397 144.649L187.124 140.594C188.457 139.45 188.551 137.507 187.334 136.256Z" fill="#69B051"/>
<path fill-rule="evenodd" clip-rule="evenodd" d="M170.673 117.04L169.961 117.65L183.564 131.642C183.728 131.81 183.805 132.015 183.805 132.226C183.805 132.465 183.707 132.695 183.505 132.868L174.105 140.933C173.926 141.088 173.706 141.16 173.483 141.161C173.228 141.16 172.984 141.067 172.799 140.877L159.196 126.887C159.032 126.718 158.955 126.514 158.955 126.303C158.955 126.064 159.053 125.834 159.255 125.66L168.655 117.595C168.834 117.442 169.052 117.369 169.277 117.367C169.532 117.369 169.776 117.462 169.961 117.65L170.673 117.04L171.383 116.428C170.822 115.853 170.047 115.556 169.277 115.558C168.594 115.558 167.9 115.791 167.354 116.258L157.955 124.324C157.343 124.851 157.026 125.579 157.029 126.303C157.026 126.945 157.277 127.597 157.775 128.109L171.377 142.098C171.936 142.674 172.713 142.971 173.483 142.971C174.165 142.971 174.86 142.737 175.403 142.27L184.805 134.204C185.417 133.678 185.734 132.949 185.731 132.226C185.734 131.583 185.485 130.931 184.985 130.42L171.384 116.43L170.673 117.04Z" fill="#2A1E17"/>
<path fill-rule="evenodd" clip-rule="evenodd" d="M127.182 205.731H144.271V191.07H127.182V205.731Z" fill="#FB847F"/>
<path fill-rule="evenodd" clip-rule="evenodd" d="M126.218 181.638V190.166H116.96C116.426 190.166 115.997 190.572 115.997 191.072C115.997 191.57 116.426 191.976 116.96 191.976H127.181C127.436 191.976 127.684 191.88 127.864 191.712C128.043 191.544 128.145 191.311 128.145 191.072V181.638C128.145 181.139 127.714 180.733 127.181 180.733C126.65 180.733 126.218 181.139 126.218 181.638Z" fill="#2A1E17"/>
<path fill-rule="evenodd" clip-rule="evenodd" d="M690.192 40.1869H707.284V25.5254H690.192V40.1869Z" fill="#FE7C48"/>
<path fill-rule="evenodd" clip-rule="evenodd" d="M689.228 16.092V24.6198H679.972C679.438 24.6198 679.009 25.0253 679.009 25.5248C679.009 26.0261 679.438 26.4297 679.972 26.4297H690.192C690.446 26.4297 690.694 26.3337 690.873 26.1655C691.053 25.9971 691.155 25.7637 691.155 25.5248V16.092C691.155 15.5925 690.723 15.187 690.192 15.187C689.66 15.187 689.228 15.5925 689.228 16.092Z" fill="#2A1E17"/>
<path fill-rule="evenodd" clip-rule="evenodd" d="M228.038 115.302C195.76 102.733 164.813 96.833 137.752 96.833C109.992 96.833 86.3041 103.041 69.4994 114.702C52.6891 126.354 42.8294 143.523 42.8428 165.111C42.8506 190.933 56.8348 223.02 89.3769 260C121.925 296.981 173.065 338.871 247.553 384.256C274.129 400.427 314.501 406.016 314.562 406.037C315.088 406.11 315.577 405.768 315.656 405.275C315.733 404.78 315.371 404.319 314.844 404.246C314.841 404.246 314.227 404.159 313.08 403.976C305.06 402.699 271.365 396.621 248.601 382.739C174.228 337.425 123.232 295.63 90.8602 258.847C58.4819 222.063 44.7616 190.304 44.7693 165.111C44.7828 144.044 54.2861 127.527 70.6437 116.157C87.0053 104.794 110.291 98.641 137.752 98.641C164.515 98.641 195.229 104.485 227.301 116.975C227.792 117.167 228.355 116.947 228.559 116.486C228.763 116.024 228.529 115.494 228.038 115.302Z" fill="#2A1E17"/>
<path fill-rule="evenodd" clip-rule="evenodd" d="M69.7767 120.779C69.7767 123.4 67.515 125.525 64.7255 125.525C61.936 125.525 59.6724 123.4 59.6724 120.779C59.6724 118.159 61.936 116.032 64.7255 116.032C67.515 116.032 69.7767 118.159 69.7767 120.779Z" fill="#2A1E17"/>
<path fill-rule="evenodd" clip-rule="evenodd" d="M32.5768 94.7298L33.2452 95.3813L38.2522 90.8658L50.0133 97.1875L55.6425 113.498L38.4486 106.738L33.4783 94.4094L32.5768 94.7298L31.677 95.05L36.7938 107.744C36.8881 107.976 37.0789 108.162 37.3236 108.258L56.833 115.928C57.1817 116.066 57.5785 115.999 57.8578 115.76C58.1353 115.519 58.2374 115.152 58.1218 114.815L51.7316 96.297C51.6585 96.0835 51.5005 95.9006 51.2944 95.7903L38.5835 88.9582C38.2136 88.7591 37.7474 88.8115 37.4392 89.0903L31.9102 94.0764C31.6309 94.3279 31.5403 94.7098 31.677 95.05L32.5768 94.7298Z" fill="#2A1E17"/>
<path fill-rule="evenodd" clip-rule="evenodd" d="M38.1052 89.744L37.4386 89.0905L32.659 93.3997L30.7922 91.2715L34.7512 87.7061L37.402 90.3628L38.1052 89.744L38.8083 89.1249L35.491 85.8003C35.3156 85.6247 35.0709 85.5216 34.8148 85.5144C34.5565 85.5089 34.3081 85.5995 34.1212 85.7659L28.8138 90.5457C28.4496 90.8715 28.4168 91.409 28.7367 91.7746L31.8325 95.3055C32.004 95.4991 32.2525 95.6186 32.5203 95.6331C32.7881 95.6476 33.0501 95.5572 33.2447 95.3816L38.7717 90.3973C39.1513 90.0534 39.1666 89.4852 38.8083 89.1249L38.1052 89.744Z" fill="#2A1E17"/>
<path fill-rule="evenodd" clip-rule="evenodd" d="M57.9176 114.484L45.2299 101.39C44.8715 101.021 44.2628 100.994 43.8698 101.331C43.4768 101.665 43.4479 102.239 43.8062 102.608L56.492 115.702C56.8504 116.072 57.4591 116.099 57.854 115.762C58.247 115.427 58.2759 114.854 57.9176 114.484Z" fill="#2A1E17"/>
<path fill-rule="evenodd" clip-rule="evenodd" d="M87.9127 447.346L101.685 514.007C101.986 515.468 103.506 516.415 105.056 516.105L119.335 513.256C120.825 512.96 121.797 511.609 121.539 510.2L109.27 443.095C108.996 441.596 107.441 440.617 105.862 440.947L90.0819 444.236C88.5831 444.55 87.6218 445.928 87.9127 447.346Z" fill="white"/>
<path fill-rule="evenodd" clip-rule="evenodd" d="M87.9127 447.346L86.9687 447.518L100.739 514.179C101.094 515.888 102.681 517.068 104.465 517.068C104.727 517.068 104.991 517.043 105.255 516.99L119.536 514.141C121.316 513.785 122.545 512.311 122.545 510.654C122.545 510.453 122.526 510.25 122.489 510.047L110.219 442.94C109.898 441.196 108.289 439.977 106.478 439.977C106.205 439.977 105.929 440.005 105.652 440.063L89.8738 443.354C88.1073 443.724 86.8975 445.192 86.8975 446.837C86.8975 447.062 86.9206 447.29 86.9687 447.518L87.9127 447.346L88.8586 447.174L88.824 446.837C88.824 446.03 89.4211 445.299 90.292 445.12L106.07 441.83L106.478 441.786C107.364 441.786 108.166 442.389 108.322 443.249L120.591 510.353L120.618 510.654C120.618 511.466 120.012 512.198 119.135 512.371L104.856 515.22L104.465 515.258C103.592 515.258 102.8 514.675 102.631 513.835L88.8586 447.172L87.9127 447.346Z" fill="#2A1E17"/>
<path fill-rule="evenodd" clip-rule="evenodd" d="M92.3931 448.615L96.3211 464.161L108.97 462.393L106.266 445.552L92.3931 448.615Z" fill="#FB847F"/>
<path fill-rule="evenodd" clip-rule="evenodd" d="M97.7109 470.105L100.797 486.567L112.485 484.766L109.549 468.019L97.7109 470.105Z" fill="#FE7C48"/>
<path fill-rule="evenodd" clip-rule="evenodd" d="M101.483 492.474L105.411 508.019L116.026 506.167L113.489 490.191L101.483 492.474Z" fill="#599FF4"/>
<path fill-rule="evenodd" clip-rule="evenodd" d="M482.233 614.416L482.482 615.29L539.817 600.872L541.393 605.078L484.488 618.954L483.166 614.188L482.233 614.416L481.301 614.646L482.867 620.287C483 620.769 483.526 621.06 484.041 620.933L542.892 606.582C543.153 606.519 543.374 606.354 543.501 606.131C543.627 605.909 543.647 605.643 543.558 605.406L541.339 599.48C541.172 599.036 540.667 598.786 540.182 598.906L481.985 613.542C481.473 613.671 481.168 614.165 481.301 614.646L482.233 614.416Z" fill="#2A1E17"/>
<path fill-rule="evenodd" clip-rule="evenodd" d="M473.24 607.046L474.919 612.009C475.081 612.485 475.622 612.749 476.129 612.596C476.636 612.446 476.917 611.936 476.755 611.46L475.075 606.497C474.914 606.021 474.372 605.757 473.866 605.909C473.359 606.061 473.078 606.57 473.24 607.046Z" fill="#2A1E17"/>
<path fill-rule="evenodd" clip-rule="evenodd" d="M472.832 610.864L477.743 609.28C478.245 609.118 478.513 608.603 478.341 608.129C478.168 607.657 477.621 607.405 477.116 607.568L472.208 609.152C471.703 609.313 471.435 609.829 471.608 610.302C471.782 610.773 472.33 611.026 472.832 610.864Z" fill="#2A1E17"/>
<path fill-rule="evenodd" clip-rule="evenodd" d="M470.416 626.002L473.583 635.364C473.743 635.842 474.285 636.104 474.793 635.954C475.3 635.802 475.579 635.294 475.42 634.818L472.253 625.454C472.093 624.977 471.549 624.714 471.042 624.865C470.535 625.016 470.256 625.525 470.416 626.002Z" fill="#2A1E17"/>
<path fill-rule="evenodd" clip-rule="evenodd" d="M468.928 632.524L477.672 629.915C478.179 629.764 478.46 629.256 478.298 628.779C478.136 628.304 477.595 628.039 477.088 628.192L468.345 630.801C467.838 630.953 467.556 631.461 467.718 631.937C467.878 632.412 468.421 632.677 468.928 632.524Z" fill="#2A1E17"/>
<path fill-rule="evenodd" clip-rule="evenodd" d="M457.116 610.543L461.246 622.943C461.405 623.42 461.946 623.684 462.453 623.536C462.961 623.386 463.244 622.88 463.084 622.402L458.955 610.002C458.796 609.524 458.257 609.261 457.748 609.408C457.241 609.557 456.958 610.065 457.116 610.543Z" fill="#2A1E17"/>
<path fill-rule="evenodd" clip-rule="evenodd" d="M454.224 618.856L466.479 615.182C466.986 615.03 467.265 614.521 467.103 614.046C466.941 613.568 466.399 613.306 465.893 613.458L453.639 617.132C453.13 617.283 452.851 617.794 453.013 618.269C453.175 618.746 453.716 619.008 454.224 618.856Z" fill="#2A1E17"/>
<path fill-rule="evenodd" clip-rule="evenodd" d="M57.9041 20.4993L58.1698 19.9454L21.8886 4.5582L22.9712 1.74752L58.7844 17.2434L57.3164 20.2458L57.9041 20.4993L58.4916 20.7526L60.2274 17.1999C60.3776 16.894 60.2351 16.5357 59.9114 16.3945L22.873 0.368424L22.3529 0.359375L21.9945 0.714103L20.4688 4.67403C20.3551 4.97265 20.5035 5.30384 20.8117 5.43416L57.6382 21.0513C57.9618 21.1888 58.3433 21.0548 58.4916 20.7526L57.9041 20.4993Z" fill="#2A1E17"/>
<path fill-rule="evenodd" clip-rule="evenodd" d="M59.2407 27.911L60.6124 24.6648C60.7434 24.3536 60.5815 24.0006 60.2502 23.8776C59.9188 23.7528 59.5431 23.9048 59.4121 24.2179L58.0386 27.464C57.9076 27.7753 58.0693 28.1281 58.4008 28.2512C58.7321 28.3742 59.1077 28.2222 59.2407 27.911Z" fill="#2A1E17"/>
<path fill-rule="evenodd" clip-rule="evenodd" d="M61.1789 26.0942L57.9135 24.9572C57.5783 24.8414 57.2065 25.0007 57.0832 25.3157C56.9599 25.6307 57.1294 25.9801 57.4646 26.096L60.7299 27.2329C61.0632 27.3487 61.435 27.1893 61.5603 26.8744C61.6835 26.5594 61.5121 26.21 61.1789 26.0942Z" fill="#2A1E17"/>
<path fill-rule="evenodd" clip-rule="evenodd" d="M69.274 19.1994L71.8632 13.0732C71.9942 12.7618 71.8324 12.4089 71.501 12.2859C71.1697 12.1628 70.794 12.3148 70.663 12.6261L68.0738 18.7507C67.9428 19.0619 68.1046 19.4149 68.4359 19.5397C68.7673 19.6628 69.143 19.5108 69.274 19.1994Z" fill="#2A1E17"/>
<path fill-rule="evenodd" clip-rule="evenodd" d="M72.9953 16.4035L67.2775 14.2713C66.9462 14.1463 66.5705 14.2983 66.4375 14.6097C66.3065 14.9228 66.4684 15.2757 66.7997 15.3989L72.5175 17.5329C72.8508 17.6559 73.2246 17.5039 73.3575 17.1926C73.4885 16.8812 73.3267 16.5283 72.9953 16.4035Z" fill="#2A1E17"/>
<path fill-rule="evenodd" clip-rule="evenodd" d="M69.193 32.5293L72.6529 24.4429C72.7859 24.1335 72.626 23.7787 72.2947 23.6538C71.9633 23.5289 71.5876 23.6792 71.4547 23.9905L67.9928 32.0769C67.86 32.3882 68.0217 32.741 68.3512 32.866C68.6825 32.9909 69.0601 32.8407 69.193 32.5293Z" fill="#2A1E17"/>
<path fill-rule="evenodd" clip-rule="evenodd" d="M74.4521 29.3675L66.4284 26.3874C66.097 26.2644 65.7213 26.4163 65.5903 26.7275C65.4593 27.0388 65.6212 27.3916 65.9545 27.5146L73.9783 30.4949C74.3096 30.6179 74.6852 30.4658 74.8162 30.1547C74.9472 29.8435 74.7854 29.4906 74.4521 29.3675Z" fill="#2A1E17"/>
<path fill-rule="evenodd" clip-rule="evenodd" d="M195.529 312.684C169.57 295.124 144.065 267.84 155.252 239.813C155.252 239.813 173.151 228.602 201.494 242.615C229.836 256.63 229.836 256.63 229.836 256.63L195.529 312.684Z" fill="#FE7C48"/>
<path fill-rule="evenodd" clip-rule="evenodd" d="M183.76 429.649C172.08 424.461 122.209 400.072 113.338 358.393C105.67 322.382 134.981 273.836 149.667 252.388C148.723 280.859 179.158 304.953 193.841 314.885C208.712 324.944 219.651 329.865 234.742 335.188L183.76 429.649Z" fill="white"/>
<path fill-rule="evenodd" clip-rule="evenodd" d="M155.252 239.812C155.252 239.812 100.063 309.88 110.505 358.926C120.946 407.973 185.088 433.197 185.088 433.197L238.787 333.703C222.005 327.921 211.103 323.216 195.529 312.684C169.57 295.124 144.065 267.84 155.252 239.812ZM147.435 260.856C150.618 279.779 165.991 299.394 192.152 317.089C206.279 326.643 216.9 331.635 230.712 336.652L182.464 426.048C167.765 419.176 124.267 395.896 116.17 357.861C109.439 326.244 132.26 284.307 147.435 260.856Z" fill="#FE7C48"/>
<path fill-rule="evenodd" clip-rule="evenodd" d="M139.78 280.625C139.79 280.696 140.607 287.827 145.222 296.879C149.832 305.926 158.261 316.909 173.456 324.551C173.924 324.789 174.508 324.622 174.76 324.182C175.01 323.741 174.834 323.192 174.365 322.957C159.598 315.524 151.444 304.891 146.958 296.098C144.716 291.701 143.398 287.768 142.643 284.941C142.264 283.529 142.026 282.393 141.884 281.615C141.813 281.226 141.764 280.925 141.736 280.724C141.707 280.524 141.696 280.433 141.696 280.433C141.64 279.935 141.166 279.576 140.636 279.629C140.106 279.682 139.724 280.129 139.78 280.625Z" fill="#2A1E17"/>
<path fill-rule="evenodd" clip-rule="evenodd" d="M189.506 334.605L219.467 349.683C219.935 349.92 220.519 349.754 220.771 349.314C221.021 348.873 220.845 348.324 220.377 348.089L190.415 333.01C189.947 332.774 189.364 332.939 189.111 333.38C188.862 333.821 189.038 334.369 189.506 334.605Z" fill="#2A1E17"/>
<path fill-rule="evenodd" clip-rule="evenodd" d="M144.141 321.112C144.198 321.236 153.975 341.552 185.285 354.739C185.772 354.943 186.342 354.739 186.559 354.283C186.777 353.827 186.559 353.29 186.074 353.088C170.692 346.609 160.642 338.401 154.433 331.826C151.329 328.538 149.187 325.656 147.826 323.605C147.143 322.581 146.658 321.763 146.344 321.206C146.188 320.927 146.075 320.713 145.999 320.572L145.92 320.415L145.897 320.368C145.68 319.913 145.11 319.709 144.623 319.916C144.138 320.12 143.923 320.656 144.141 321.112Z" fill="#2A1E17"/>
<path fill-rule="evenodd" clip-rule="evenodd" d="M119.447 323.798C119.451 323.849 119.72 329.191 121.902 335.471C124.082 341.739 128.188 349.018 136.028 352.714C136.503 352.937 137.082 352.755 137.321 352.309C137.558 351.861 137.365 351.319 136.89 351.093C129.75 347.752 125.831 340.957 123.733 334.91C122.683 331.893 122.092 329.08 121.763 327.031C121.599 326.004 121.501 325.168 121.443 324.593C121.416 324.305 121.396 324.082 121.385 323.932L121.371 323.712C121.346 323.214 120.896 322.827 120.364 322.852C119.832 322.875 119.422 323.3 119.447 323.798Z" fill="#2A1E17"/>
<path fill-rule="evenodd" clip-rule="evenodd" d="M153.69 250.285C153.689 250.314 153.651 250.687 153.651 251.38C153.638 256.832 155.985 282.006 194.902 313.369C195.306 313.694 195.913 313.652 196.259 313.271C196.606 312.893 196.56 312.32 196.155 311.995C157.613 280.899 155.591 256.35 155.578 251.38C155.578 251.064 155.586 250.826 155.593 250.673L155.606 250.502L155.609 250.459C155.659 249.961 155.272 249.519 154.742 249.473C154.213 249.424 153.742 249.788 153.69 250.285Z" fill="#2A1E17"/>
<path fill-rule="evenodd" clip-rule="evenodd" d="M170.774 256.301L170.797 256.299C170.861 256.298 171.042 256.288 171.339 256.288C174.103 256.291 186.745 256.997 204.37 269.194C204.798 269.491 205.401 269.406 205.717 269.002C206.032 268.6 205.94 268.034 205.512 267.737C187.562 255.308 174.458 254.475 171.339 254.479C170.893 254.479 170.651 254.494 170.628 254.497C170.096 254.535 169.699 254.971 169.739 255.468C169.782 255.966 170.245 256.339 170.776 256.301" fill="#2A1E17"/>
<path fill-rule="evenodd" clip-rule="evenodd" d="M104.324 341.899C104.251 343.002 104.195 344.338 104.195 345.878C104.193 354.634 105.992 370 116.507 386.776C127.018 403.553 146.238 421.703 180.92 436.052C181.408 436.253 181.976 436.047 182.19 435.588C182.406 435.131 182.184 434.597 181.697 434.396C147.32 420.167 128.467 402.287 118.167 385.858C107.869 369.426 106.121 354.406 106.121 345.878C106.121 344.38 106.175 343.083 106.247 342.012C106.279 341.514 105.877 341.084 105.345 341.052C104.815 341.021 104.357 341.401 104.324 341.899Z" fill="#2A1E17"/>
<path fill-rule="evenodd" clip-rule="evenodd" d="M585.036 314.844L553.168 374.843C553.168 374.843 574.783 382.317 557.885 405.593C557.885 405.593 597.835 421.158 623.976 380.733C650.116 340.307 585.036 314.844 585.036 314.844Z" fill="#69B051"/>
<path fill-rule="evenodd" clip-rule="evenodd" d="M512.099 498.209C495.973 498.209 478.954 492.023 461.48 479.813L521.097 387.038L556.553 408.012L556.778 408.1C557.108 408.229 565 411.252 576.141 411.254H576.143C585.101 411.254 596.404 409.288 607.416 401.969L563.839 472.006C563.739 472.142 544.977 498.207 512.103 498.209H512.099Z" fill="white"/>
<path fill-rule="evenodd" clip-rule="evenodd" d="M623.975 380.732C609.205 403.571 590.031 408.536 576.141 408.536C565.446 408.536 557.884 405.592 557.884 405.592L520.144 383.266L457.661 480.503C478.584 495.655 496.834 500.923 512.103 500.923C547.011 500.923 566.334 473.376 566.334 473.376L623.975 380.732ZM522.047 390.808L554.805 410.187L555.22 410.431L555.672 410.609C556.024 410.744 564.431 413.967 576.141 413.967C582.976 413.967 591.103 412.888 599.461 409.373L561.438 470.484C560.195 472.181 542.544 495.494 512.103 495.494C497.256 495.494 481.538 489.977 465.323 479.086L522.047 390.808Z" fill="#6CA958"/>
<path fill-rule="evenodd" clip-rule="evenodd" d="M552.847 375.698L552.959 375.735C553.558 375.951 556.463 377.078 559.154 379.311C561.851 381.556 564.314 384.823 564.318 389.479C564.319 393.467 562.493 398.592 557.125 405.035C556.799 405.429 556.872 405.997 557.29 406.306C557.709 406.613 558.315 406.545 558.642 406.152C564.176 399.509 566.242 394.002 566.244 389.479C566.248 383.823 562.994 379.901 559.834 377.48C556.667 375.044 553.55 374.013 553.489 373.991C552.986 373.824 552.437 374.07 552.259 374.543C552.083 375.014 552.345 375.531 552.847 375.698Z" fill="#2A1E17"/>
<path fill-rule="evenodd" clip-rule="evenodd" d="M518.753 381.849C518.77 381.864 526.83 388.801 537.168 395.754C542.336 399.231 548.076 402.713 553.685 405.341C559.297 407.963 564.77 409.751 569.521 409.76L569.711 409.758C578.748 409.663 588.603 408.61 597.813 405.009C607.022 401.413 615.572 395.242 621.874 385.025C622.14 384.592 621.983 384.039 621.524 383.789C621.064 383.538 620.475 383.684 620.207 384.117C614.11 393.986 605.952 399.861 597.072 403.339C588.194 406.813 578.583 407.856 569.693 407.949L569.521 407.95C565.294 407.957 560.012 406.287 554.544 403.721C546.334 399.878 537.69 394.069 531.121 389.226C527.834 386.804 525.063 384.624 523.118 383.049C522.145 382.261 521.377 381.629 520.854 381.19C520.33 380.752 520.055 380.515 520.055 380.513C519.662 380.177 519.053 380.202 518.694 380.569C518.335 380.938 518.362 381.51 518.753 381.849Z" fill="#2A1E17"/>
<path fill-rule="evenodd" clip-rule="evenodd" d="M522.736 417.9C522.819 417.945 539.408 431.862 560.337 431.894C563.696 431.894 567.166 431.529 570.688 430.687C571.202 430.564 571.514 430.069 571.381 429.586C571.251 429.101 570.727 428.809 570.21 428.932C566.854 429.736 563.548 430.083 560.337 430.083C550.338 430.086 541.239 426.71 534.645 423.311C531.35 421.615 528.683 419.916 526.845 418.645C525.926 418.01 525.213 417.482 524.733 417.114C524.494 416.93 524.311 416.787 524.192 416.689L524.015 416.546C523.618 416.214 523.009 416.25 522.657 416.623C522.302 416.997 522.339 417.569 522.736 417.9Z" fill="#2A1E17"/>
<path fill-rule="evenodd" clip-rule="evenodd" d="M546.14 445.652C546.235 445.715 551.781 449.61 560.644 449.615C564.831 449.615 569.744 448.735 575.108 446.18C575.584 445.953 575.773 445.409 575.532 444.964C575.292 444.519 574.712 444.34 574.238 444.565C569.136 446.994 564.543 447.805 560.644 447.806C556.52 447.806 553.165 446.894 550.845 445.984C549.685 445.53 548.785 445.076 548.182 444.74C547.88 444.573 547.652 444.434 547.502 444.34L547.338 444.233L547.294 444.203C546.868 443.903 546.265 443.985 545.945 444.385C545.628 444.785 545.714 445.351 546.14 445.652Z" fill="#2A1E17"/>
<path fill-rule="evenodd" clip-rule="evenodd" d="M492.4 456.992C492.489 457.068 507.893 471.459 533.848 471.469C542.402 471.469 552.086 469.898 562.701 465.741C563.193 465.55 563.426 465.021 563.221 464.56C563.015 464.098 562.452 463.878 561.961 464.071C551.57 468.139 542.15 469.657 533.848 469.659C521.262 469.659 511.232 466.16 504.338 462.66C500.894 460.912 498.238 459.163 496.448 457.857C495.552 457.205 494.874 456.661 494.423 456.284C494.198 456.096 494.029 455.95 493.919 455.853L493.758 455.709C493.381 455.356 492.772 455.358 492.397 455.712C492.023 456.067 492.023 456.639 492.4 456.992Z" fill="#2A1E17"/>
<path fill-rule="evenodd" clip-rule="evenodd" d="M507.162 432.571C507.171 432.578 509.927 434.43 513.553 436.58C517.188 438.734 521.668 441.184 525.244 442.411C525.742 442.583 526.295 442.341 526.478 441.872C526.66 441.401 526.404 440.882 525.903 440.711C522.603 439.585 518.156 437.172 514.583 435.051C512.793 433.989 511.215 433 510.086 432.276C508.957 431.553 508.281 431.1 508.281 431.1C507.849 430.808 507.247 430.903 506.939 431.311C506.628 431.715 506.728 432.282 507.162 432.571Z" fill="#2A1E17"/>
<path fill-rule="evenodd" clip-rule="evenodd" d="M590.21 333.118L590.261 333.136C590.897 333.34 596.917 335.412 603.098 341.031C609.278 346.659 615.643 355.801 617.052 370.334C617.101 370.831 617.572 371.198 618.101 371.153C618.631 371.108 619.019 370.668 618.972 370.17C617.486 354.723 610.468 344.986 603.815 339.174C597.158 333.357 590.893 331.425 590.807 331.397C590.302 331.243 589.759 331.501 589.593 331.977C589.427 332.451 589.703 332.962 590.21 333.118Z" fill="#2A1E17"/>
<path fill-rule="evenodd" clip-rule="evenodd" d="M602.044 370.375L602.071 370.415C602.385 370.887 605.217 375.407 605.211 381.753C605.199 387.476 602.973 394.707 594.398 402.096C594.005 402.435 593.978 403.007 594.337 403.375C594.697 403.743 595.305 403.769 595.699 403.431C604.634 395.761 607.151 387.931 607.138 381.753C607.132 374.439 603.715 369.478 603.662 369.393C603.374 368.974 602.778 368.853 602.33 369.124C601.884 369.396 601.755 369.955 602.044 370.375Z" fill="#2A1E17"/>
<path fill-rule="evenodd" clip-rule="evenodd" d="M459.31 485.778C459.393 485.821 484.037 505.727 513.87 505.758C531.316 505.776 550.507 498.83 567.155 477.22C567.467 476.815 567.37 476.251 566.938 475.957C566.509 475.664 565.906 475.755 565.594 476.158C549.209 497.365 530.769 503.93 513.87 503.948C499.417 503.951 486.068 499.075 476.344 494.175C471.484 491.727 467.528 489.277 464.795 487.443C463.427 486.527 462.366 485.763 461.647 485.231C461.289 484.964 461.015 484.757 460.832 484.615C460.651 484.474 460.564 484.406 460.564 484.403C460.16 484.079 459.553 484.123 459.206 484.503C458.859 484.884 458.907 485.453 459.312 485.778" fill="#2A1E17"/>
<path fill-rule="evenodd" clip-rule="evenodd" d="M14.7568 297.018H29.136C29.6677 297.018 30.0992 296.612 30.0992 296.114C30.0992 295.614 29.6677 295.209 29.136 295.209H14.7568C14.2251 295.209 13.7935 295.614 13.7935 296.114C13.7935 296.612 14.2251 297.018 14.7568 297.018Z" fill="#FB847F"/>
<path fill-rule="evenodd" clip-rule="evenodd" d="M815.692 134.556H830.071C830.603 134.556 831.034 134.152 831.034 133.652C831.034 133.151 830.603 132.747 830.071 132.747H815.692C815.16 132.747 814.729 133.151 814.729 133.652C814.729 134.152 815.16 134.556 815.692 134.556Z" fill="#FB847F"/>
<path fill-rule="evenodd" clip-rule="evenodd" d="M430.117 41.8798H444.495V40.0703H430.117V41.8798Z" fill="#FE7C48"/>
<path fill-rule="evenodd" clip-rule="evenodd" d="M842.971 204.601L857.123 206.989L857.464 205.206L843.312 202.819" fill="#FE7C48"/>
<path fill-rule="evenodd" clip-rule="evenodd" d="M278.352 541.651H292.729C293.262 541.651 293.693 541.246 293.693 540.746C293.693 540.248 293.262 539.842 292.729 539.842H278.352C277.821 539.842 277.389 540.248 277.389 540.746C277.389 541.246 277.821 541.651 278.352 541.651Z" fill="#599FF4"/>
<path fill-rule="evenodd" clip-rule="evenodd" d="M878.882 372.369C878.882 374.841 876.75 376.845 874.12 376.845C871.489 376.845 869.354 374.841 869.354 372.369C869.354 369.896 871.489 367.891 874.12 367.891C876.75 367.891 878.882 369.896 878.882 372.369Z" fill="#69B051"/>
<mask id="mask0_425_2" style="mask-type:alpha" maskUnits="userSpaceOnUse" x="843" y="414" width="98" height="248">
<path d="M843.291 414.512H940.999V661.902H843.291V414.512Z" fill="white"/>
</mask>
<g mask="url(#mask0_425_2)">
<path fill-rule="evenodd" clip-rule="evenodd" d="M925.785 648.076C923.125 647.287 921.649 644.619 922.492 642.118C923.333 639.621 926.172 638.236 928.833 639.025C931.492 639.819 932.966 642.486 932.125 644.983C931.283 647.484 928.444 648.87 925.785 648.076Z" fill="#2A1E17"/>
<path fill-rule="evenodd" clip-rule="evenodd" d="M1217.22 481.874C1217.24 481.821 1221.05 471.152 1221.07 458.27C1221.07 448.627 1218.91 437.689 1211.26 429.117C1203.62 420.54 1190.52 414.501 1169.07 414.512C1147.98 414.515 1118.75 420.309 1078.28 435.243C999.285 464.403 940.574 507.239 901.596 547.627C882.106 567.821 867.549 587.403 857.851 604.376C848.159 621.359 843.302 635.698 843.291 645.59C843.291 648.94 843.852 651.798 845.035 654.081C846.21 656.364 848.053 658.063 850.469 658.959C856.089 661.055 862.179 661.902 868.368 661.902C882.331 661.899 896.834 657.6 907.876 653.322C918.917 649.039 926.489 644.762 926.516 644.746C926.973 644.489 927.119 643.933 926.846 643.505C926.572 643.077 925.981 642.938 925.524 643.196C925.524 643.196 925.413 643.259 925.189 643.382C923.513 644.301 915.669 648.49 905.057 652.44C894.449 656.393 881.064 660.095 868.368 660.092C862.365 660.094 856.52 659.269 851.18 657.278C849.222 656.542 847.782 655.235 846.767 653.289C845.755 651.346 845.215 648.751 845.218 645.59C845.205 636.238 849.935 622.043 859.55 605.232C888.381 554.751 960.942 480.493 1078.98 436.928C1119.31 422.039 1148.35 416.319 1169.07 416.322C1190.15 416.332 1202.56 422.195 1209.8 430.28C1217.02 438.373 1219.14 448.863 1219.14 458.27C1219.14 464.545 1218.2 470.316 1217.26 474.511C1216.79 476.609 1216.33 478.312 1215.96 479.487C1215.79 480.075 1215.66 480.531 1215.56 480.839C1215.45 481.146 1215.41 481.298 1215.41 481.298C1215.23 481.772 1215.5 482.284 1216 482.444C1216.5 482.603 1217.06 482.348 1217.22 481.874Z" fill="#2A1E17"/>
</g>
</g>
<defs>
<clipPath id="clip0_425_2">
<rect width="942" height="662" fill="white"/>
</clipPath>
</defs>
</svg>
